<?xml version="1.0" encoding="utf-8"?>
<!-- Generator: Adobe Illustrator 26.0.3, SVG Export Plug-In . SVG Version: 6.00 Build 0)  -->
<svg version="1.1" id="Layer_1" xmlns="http://www.w3.org/2000/svg" xmlns:xlink="http://www.w3.org/1999/xlink" x="0px" y="0px"
	 viewBox="0 0 500 500" style="enable-background:new 0 0 500 500;" xml:space="preserve">
<style type="text/css">
	.st0{fill:url(#SVGID_1_);}
	.st1{fill:url(#SVGID_00000035494296150919753460000010691015577287198631_);}
	.st2{fill:#31333F;}
	.st3{fill:url(#SVGID_00000126314470462041407650000017035459327711391108_);}
	.st4{fill:url(#SVGID_00000078016232759057026640000005865603353944784772_);}
	.st5{fill:url(#SVGID_00000015332525129779267100000000535054439330945185_);}
	.st6{fill:url(#SVGID_00000119084382653556436700000012953740180864917944_);}
	.st7{fill:url(#SVGID_00000097462276507219134850000014538824868074523055_);}
	.st8{fill:url(#SVGID_00000129925975205408656090000006389631718082848148_);}
	.st9{fill:url(#SVGID_00000170996590258443257870000015072291613774807984_);}
	.st10{fill:url(#SVGID_00000002351326978451541920000012920877629533359802_);}
	.st11{fill:#FFFFFF;}
	.st12{fill:url(#SVGID_00000074414340211149300710000010942153311565620897_);}
	.st13{fill:url(#SVGID_00000061430028903880466260000017520827271250382500_);}
	.st14{fill:url(#SVGID_00000109023600804539734910000000987793364335206796_);}
	.st15{fill:url(#SVGID_00000078022137255803324750000016858822663978918279_);}
	.st16{fill:url(#SVGID_00000155848785055125675680000004691355606338453166_);}
	.st17{fill:url(#SVGID_00000003084329644852199390000012952510950237019290_);}
	.st18{fill:url(#SVGID_00000088132179183840158980000014035802406685444246_);}
	.st19{fill:url(#SVGID_00000034777242385088425720000017565789693245627308_);}
</style>
<rect x="-3.64" y="-3.64" width="507.27" height="507.27"/>
<g>
	<g>
		<g>
			<linearGradient id="SVGID_1_" gradientUnits="userSpaceOnUse" x1="263.1331" y1="148.3497" x2="383.3275" y2="289.7548">
				<stop  offset="0" style="stop-color:#03C9E6"/>
				<stop  offset="1" style="stop-color:#2C4ED6"/>
			</linearGradient>
			<path class="st0" d="M349.55,347.66c-5,0-9.87-2.55-12.62-7.14l-48.33-80.54c-13.35-22.24-13.68-49-0.9-71.57
				c12.78-22.57,35.9-36.05,61.84-36.05c8.12,0,14.71,6.58,14.71,14.71s-6.58,14.71-14.71,14.71c-15.2,0-28.75,7.9-36.24,21.13
				s-7.29,28.91,0.53,41.95l48.33,80.54c4.18,6.96,1.92,16-5.04,20.18C354.73,346.98,352.12,347.66,349.55,347.66z"/>
			
				<linearGradient id="SVGID_00000142157901899757234260000006918243399689973396_" gradientUnits="userSpaceOnUse" x1="176.4549" y1="222.0262" x2="296.6492" y2="363.4313">
				<stop  offset="0" style="stop-color:#03C9E6"/>
				<stop  offset="1" style="stop-color:#2C4ED6"/>
			</linearGradient>
			<path style="fill:url(#SVGID_00000142157901899757234260000006918243399689973396_);" d="M150.45,347.66
				c-2.57,0-5.18-0.68-7.55-2.1c-6.97-4.18-9.22-13.21-5.04-20.18l99.54-165.89c4.18-6.97,13.21-9.22,20.18-5.04
				c6.97,4.18,9.22,13.21,5.04,20.18l-99.54,165.89C160.32,345.11,155.45,347.66,150.45,347.66z"/>
			
				<linearGradient id="SVGID_00000016050031666095505880000000427668078891480192_" gradientUnits="userSpaceOnUse" x1="275.2417" y1="138.0574" x2="395.436" y2="279.4625">
				<stop  offset="0" style="stop-color:#03C9E6"/>
				<stop  offset="1" style="stop-color:#2C4ED6"/>
			</linearGradient>
			<circle style="fill:url(#SVGID_00000016050031666095505880000000427668078891480192_);" cx="348.19" cy="223.88" r="15.53"/>
			
				<linearGradient id="SVGID_00000037680755373463499410000002701032284414294408_" gradientUnits="userSpaceOnUse" x1="175.0978" y1="223.1797" x2="295.2921" y2="364.5848">
				<stop  offset="0" style="stop-color:#03C9E6"/>
				<stop  offset="1" style="stop-color:#2C4ED6"/>
			</linearGradient>
			<path style="fill:url(#SVGID_00000037680755373463499410000002701032284414294408_);" d="M251.48,289.02h-65.84
				c-8.12,0-14.71-6.58-14.71-14.71c0-8.12,6.58-14.71,14.71-14.71h65.84c8.12,0,14.71,6.58,14.71,14.71
				C266.19,282.44,259.6,289.02,251.48,289.02z"/>
		</g>
	</g>
</g>
</svg>
