<svg width="148" height="30" viewBox="0 0 148 30" fill="none" xmlns="http://www.w3.org/2000/svg">
<g clip-path="url(#clip0_3619_4424)">
<path fill-rule="evenodd" clip-rule="evenodd" d="M13.9204 16.6348L10.8598 9.22307L7.79911 16.6348H13.9204ZM14.9191 19.1054H6.76816L5.15729 23.0389H2.03223L9.34554 6.06982H12.3095L19.6551 23.0389H16.4978L14.9191 19.1054Z" fill="#dde8fc" fill-opacity="0.75"/>
<path fill-rule="evenodd" clip-rule="evenodd" d="M21.4917 23.0384H24.3913V5.02909H21.4917V23.0384ZM38.4702 16.5693C38.4702 14.0988 36.8915 12.5059 34.7974 12.5059C32.7033 12.5059 31.0924 14.0988 31.0924 16.5693C31.0924 19.0399 32.7033 20.6328 34.7974 20.6328C36.8915 20.6328 38.4702 19.0399 38.4702 16.5693ZM41.402 16.5693C41.402 20.6003 38.7279 23.2009 35.0874 23.2009C33.5087 23.2009 32.1234 22.6483 31.1247 21.4455V27.7195H28.2251V10.0678H30.9958V11.7582C31.9623 10.5229 33.4121 9.90525 35.1196 9.90525C38.7279 9.93776 41.402 12.5384 41.402 16.5693ZM56.4152 15.5941V23.0059H53.5156V15.9842C53.5156 13.6762 52.4203 12.5709 50.5517 12.5709C48.4898 12.5709 47.0722 13.8712 47.0722 16.4718V23.0059H44.1726V4.99658H47.0722V11.5631C48.0387 10.4904 49.4885 9.90525 51.2282 9.90525C54.2244 9.93776 56.4152 11.6932 56.4152 15.5941ZM67.6268 18.9749V17.4796H64.6306C62.6653 17.4796 62.1176 18.2597 62.1176 19.2025C62.1176 20.3077 62.9875 20.9904 64.5017 20.9904C65.8871 20.9904 67.1113 20.3077 67.6268 18.9749ZM70.5264 15.4316V23.0384H67.7879V21.4455C67.0791 22.5508 65.726 23.2009 63.8896 23.2009C61.0545 23.2009 59.2503 21.5755 59.2503 19.3325C59.2503 17.187 60.6357 15.4641 64.4051 15.4641H67.6268V15.269C67.6268 13.4811 66.5958 12.4409 64.5339 12.4409C63.1486 12.4409 61.6988 12.9285 60.7645 13.7412L59.6369 11.5306C60.9578 10.4579 62.8909 9.93776 64.8883 9.93776C68.4644 9.93776 70.5264 11.6932 70.5264 15.4316ZM97.911 6.03683L92.4985 23.0059H89.2768L85.2818 10.4579L81.1903 23.0384H77.9685L72.556 6.03683H75.6811L79.7405 18.9424L83.9609 6.03683H86.7638L90.8877 19.0074L95.0437 6.03683H97.911ZM107.48 18.9749V17.4796H104.483C102.518 17.4796 101.97 18.2597 101.97 19.2025C101.97 20.3077 102.84 20.9904 104.354 20.9904C105.772 20.9904 106.996 20.3077 107.48 18.9749ZM110.411 15.4316V23.0384H107.673V21.4455C106.964 22.5508 105.611 23.2009 103.775 23.2009C100.939 23.2009 99.1353 21.5755 99.1353 19.3325C99.1353 17.187 100.521 15.4641 104.29 15.4641H107.512V15.269C107.512 13.4811 106.481 12.4409 104.419 12.4409C103.034 12.4409 101.584 12.9285 100.649 13.7412L99.5219 11.5306C100.843 10.4579 102.776 9.93776 104.773 9.93776C108.317 9.93776 110.411 11.6932 110.411 15.4316ZM113.697 23.0384H116.597V5.02909H113.697V23.0384ZM120.399 23.0384H123.298V5.02909H120.399V23.0384ZM129.001 15.4966H136.056C135.831 13.6436 134.445 12.3433 132.545 12.3433C130.644 12.3433 129.258 13.6111 129.001 15.4966ZM138.762 17.5121H129.001C129.355 19.3975 130.869 20.6328 133.028 20.6328C134.413 20.6328 135.509 20.1777 136.411 19.235L137.957 21.0879C136.829 22.4857 135.09 23.2009 132.963 23.2009C128.807 23.2009 126.101 20.4053 126.101 16.5693C126.101 12.7334 128.807 9.93776 132.512 9.93776C136.153 9.93776 138.795 12.5709 138.795 16.6344C138.827 16.8619 138.795 17.2195 138.762 17.5121ZM149.072 22.3232C148.363 22.9084 147.332 23.2009 146.269 23.2009C143.531 23.2009 141.984 21.7056 141.984 18.8449V12.6034H139.922V10.1653H141.984V7.20711H144.884V10.1653H148.202V12.6034H144.884V18.7799C144.884 20.0477 145.496 20.7303 146.591 20.7303C147.203 20.7303 147.783 20.5678 148.234 20.2102L149.072 22.3232Z" fill="#dde8fc" fill-opacity="0.75"/>
</g>
<defs>
<clipPath id="clip0_3619_4424">
<rect width="147" height="30" fill="white" transform="translate(0.970215)"/>
</clipPath>
</defs>
</svg>
