<svg width="80" height="32" viewBox="0 0 80 32" fill="none" xmlns="http://www.w3.org/2000/svg">
<g clip-path="url(#clip0_3619_4413)">
<path d="M57.2764 23.6199V3.23535H61.357V23.6199H57.2764Z" fill="#c3d8fa" fill-opacity="0.75"/>
<path d="M9.71839 29.675H0.970215V9.29053H9.36661C13.4473 9.29053 15.825 11.5236 15.825 15.0167C15.825 17.2778 14.298 18.739 13.241 19.2255C14.5026 19.7978 16.1176 21.0858 16.1176 23.807C16.1176 27.6135 13.4473 29.675 9.71839 29.675ZM9.04361 12.8413H5.05088V17.5366H9.04361C10.7754 17.5366 11.7444 16.5917 11.7444 15.1882C11.7444 13.7862 10.7754 12.8413 9.04361 12.8413ZM9.30745 21.1155H5.05088V26.1258H9.30745C11.1575 26.1258 12.0369 24.9813 12.0369 23.6059C12.0369 22.232 11.1559 21.1155 9.30745 21.1155Z" fill="#dde8fc" fill-opacity="0.75"/>
<path d="M28.5639 21.3151V29.675H24.512V21.3151L18.2295 9.29053H22.6619L26.5667 17.507L30.4124 9.29053H34.8448L28.5639 21.3151Z" fill="#dde8fc" fill-opacity="0.75"/>
<path d="M46.4142 29.675H37.666V9.29053H46.0624C50.1431 9.29053 52.5208 11.5236 52.5208 15.0167C52.5208 17.2778 50.9938 18.739 49.9368 19.2255C51.1984 19.7978 52.8135 21.0858 52.8135 23.807C52.8135 27.6135 50.1431 29.675 46.4142 29.675ZM45.7395 12.8413H41.7467V17.5366H45.7395C47.4712 17.5366 48.4402 16.5917 48.4402 15.1882C48.4402 13.7862 47.4712 12.8413 45.7395 12.8413ZM46.0032 21.1155H41.7467V26.1258H46.0032C47.8533 26.1258 48.7327 24.9813 48.7327 23.6059C48.7327 22.232 47.8533 21.1155 46.0032 21.1155Z" fill="#dde8fc" fill-opacity="0.75"/>
<path d="M74.5091 12.8413V29.6766H70.4284V12.8413H64.9678V9.29053H79.9697V12.8413H74.5091Z" fill="#dde8fc" fill-opacity="0.75"/>
</g>
<defs>
<clipPath id="clip0_3619_4413">
<rect width="79" height="31" fill="white" transform="translate(0.970215 0.5)"/>
</clipPath>
</defs>
</svg>
