<svg width="126" height="24" viewBox="0 0 126 24" fill="none" xmlns="http://www.w3.org/2000/svg">
<g clip-path="url(#clip0_3617_4209)">
<path d="M25.2482 7.03919C20.7126 7.03919 17.164 10.5086 17.164 15.1628C17.164 19.8169 20.6286 23.2652 25.2482 23.2652C29.8887 23.2652 33.3953 19.7534 33.3953 15.1416C33.4163 10.5298 29.9517 7.03919 25.2482 7.03919ZM25.2902 19.9015C22.7074 19.9015 20.8176 17.8706 20.8176 15.1628C20.8176 12.4126 22.6864 10.4029 25.2692 10.4029C27.8939 10.4029 29.7837 12.4549 29.7837 15.1628C29.7627 17.8706 27.8729 19.9015 25.2902 19.9015ZM34.4032 10.5721H36.65V22.9479H40.2616V7.33536H34.4032V10.5721ZM8.09295 10.3817C9.98275 10.3817 11.4946 11.5664 12.0615 13.3011H15.8831C15.1902 9.55665 12.1245 7.01803 8.13494 7.01803C3.57842 7.03919 0.0297852 10.5086 0.0297852 15.1628C0.0297852 19.8169 3.49443 23.2652 8.11395 23.2652C12.0195 23.2652 15.1482 20.7266 15.8411 16.961H12.0615C11.5156 18.7168 10.0247 19.9227 8.11395 19.9227C5.48922 19.9227 3.66241 17.8918 3.66241 15.1839C3.66241 12.4126 5.46822 10.3817 8.09295 10.3817ZM102.961 13.6396L100.315 13.2376C99.0555 13.0472 98.1526 12.6242 98.1526 11.6299C98.1526 10.5509 99.3285 10.0009 100.924 10.0009C102.667 10.0009 103.78 10.7625 104.032 11.9895H107.518C107.119 8.85853 104.725 7.01803 101.029 7.01803C97.2077 7.01803 94.6879 8.98546 94.6879 11.7568C94.6879 14.4223 96.3468 15.9455 99.6854 16.4321L102.331 16.834C103.633 17.0244 104.347 17.5321 104.347 18.5053C104.347 19.7534 103.087 20.2612 101.344 20.2612C99.2025 20.2612 98.0056 19.3938 97.8166 18.061H94.268C94.604 21.1074 96.9767 23.244 101.302 23.244C105.25 23.244 107.854 21.4247 107.854 18.3149C107.833 15.5436 105.922 14.105 102.961 13.6396ZM38.4558 0.904192C37.1329 0.904192 36.146 1.87733 36.146 3.18895C36.146 4.52172 37.1329 5.47371 38.4558 5.47371C39.7787 5.47371 40.7656 4.50057 40.7656 3.18895C40.7656 1.87733 39.7787 0.904192 38.4558 0.904192ZM91.4123 12.6876C91.4123 9.30279 89.3755 7.03919 85.0289 7.03919C80.9344 7.03919 78.6456 9.13355 78.2047 12.328H81.7743C81.9633 11.0798 82.9082 10.0644 84.966 10.0644C86.7928 10.0644 87.6957 10.8894 87.6957 11.8837C87.6957 13.1742 86.0368 13.5127 84.0001 13.7242C81.2283 14.0204 77.8057 14.9935 77.8057 18.6111C77.8057 21.4247 79.8845 23.2229 83.1811 23.2229C85.7639 23.2229 87.3807 22.144 88.1996 20.4092C88.3256 21.9536 89.4595 22.9479 91.0553 22.9479H93.1551V19.7111H91.3703L91.4123 12.6876ZM87.8637 16.6013C87.8637 18.6957 86.0578 20.2188 83.8741 20.2188C82.5302 20.2188 81.3753 19.6477 81.3753 18.4418C81.3753 16.8975 83.2021 16.4744 84.903 16.3051C86.5198 16.1571 87.4227 15.7974 87.8847 15.0993C87.8637 15.0993 87.8637 16.6013 87.8637 16.6013ZM68.7136 7.03919C66.6979 7.03919 65.018 7.8854 63.8212 9.30279V0.756104H60.2095V22.9479H63.7582V20.8958C64.955 22.3767 66.6769 23.244 68.7136 23.244C73.0392 23.244 76.3149 19.7957 76.3149 15.1416C76.3149 10.4875 72.9762 7.03919 68.7136 7.03919ZM68.1677 19.9015C65.585 19.9015 63.6952 17.8706 63.6952 15.1628C63.6952 12.4549 65.627 10.4029 68.2097 10.4029C70.8344 10.4029 72.6612 12.4338 72.6612 15.1628C72.6402 17.8706 70.7504 19.9015 68.1677 19.9015ZM51.5584 7.03919C49.2067 7.03919 47.6738 8.01232 46.7709 9.36625V7.33536H43.2013V22.9479H46.8129V14.4646C46.8129 12.0741 48.3248 10.3817 50.5505 10.3817C52.6293 10.3817 53.9102 11.8626 53.9102 13.9992V22.9479H57.5218V13.7454C57.5218 9.81051 55.506 7.03919 51.5584 7.03919ZM125.03 14.6339C125.03 10.1701 121.775 7.01803 117.429 7.01803C112.788 7.01803 109.407 10.5298 109.407 15.1416C109.407 20.0073 113.04 23.244 117.492 23.244C121.25 23.244 124.19 21.0016 124.946 17.8495H121.187C120.641 19.2457 119.318 20.0285 117.555 20.0285C115.245 20.0285 113.502 18.5687 113.103 16.0513H125.051L125.03 14.6339ZM113.292 13.428C113.859 11.2491 115.497 10.1913 117.345 10.1913C119.381 10.1913 120.956 11.376 121.313 13.428H113.292Z" fill="#dde8fc" fill-opacity="0.75"/>
</g>
<defs>
<clipPath id="clip0_3617_4209">
<rect width="125" height="24" fill="white" transform="translate(0.0297852)"/>
</clipPath>
</defs>
</svg>
