<svg width="121" height="38" viewBox="0 0 121 38" fill="none" xmlns="http://www.w3.org/2000/svg">
<g clip-path="url(#clip0_3618_4341)">
<path fill-rule="evenodd" clip-rule="evenodd" d="M17.7325 24.3961C18.2914 23.5726 18.702 22.6614 18.9464 21.702H16.1874C15.852 22.809 15.306 23.6671 14.5497 24.2761C13.6668 24.9896 12.5279 25.3441 11.1374 25.3441C10.2391 25.3625 9.35378 25.1316 8.58367 24.6782C7.84868 24.2393 7.24281 23.5874 6.75944 22.7323C6.37063 22.0473 6.08304 21.3116 5.90525 20.5475C5.71556 19.7051 5.62302 18.8446 5.62936 17.9821C5.61565 17.0002 5.73514 16.0208 5.98471 15.0697C6.20878 14.2208 6.58791 13.4187 7.10376 12.7021C7.57603 12.0263 8.21139 11.4753 8.95338 11.0978C9.70621 10.7276 10.539 10.5403 11.3813 10.5519C11.93 10.5492 12.4751 10.6377 12.9936 10.8135C13.5184 10.9919 14.0105 11.2514 14.4515 11.5822C14.9186 11.9274 15.3163 12.3544 15.6246 12.8416C15.8494 13.1989 16.0313 13.5806 16.1665 13.9789H19.0215C18.8599 13.0764 18.5036 12.218 17.9764 11.4611C17.3385 10.5616 16.4313 9.82759 15.2648 9.27084C14.1182 8.70868 12.8027 8.42761 11.3283 8.42761C10.7181 8.42469 10.1089 8.4768 9.50849 8.58328C8.93851 8.68416 8.38026 8.84061 7.84206 9.0503C6.85332 9.44021 5.96691 10.0432 5.24861 10.8146C4.49205 11.6574 3.91231 12.6378 3.54246 13.7C3.29515 14.3804 3.11445 15.0823 3.0028 15.7962C2.87638 16.5894 2.81402 17.3911 2.81629 18.194C2.80913 19.1711 2.90492 20.1463 3.10212 21.1042C3.26789 21.917 3.54909 22.703 3.93754 23.4393C4.28108 24.0979 4.71925 24.7048 5.23868 25.2414C5.7326 25.747 6.30509 26.1728 6.9349 26.5031C7.57719 26.8453 8.26247 27.1037 8.97325 27.2717C9.72744 27.4443 10.4997 27.5296 11.2742 27.5257C11.9755 27.53 12.6749 27.4556 13.3589 27.3041C13.9876 27.1588 14.5947 26.9354 15.1655 26.6393C16.1974 26.111 17.0794 25.3403 17.7325 24.3961ZM46.9512 26.9906H49.4564V8.94003H46.9512V26.9939V26.9906ZM26.8923 12.5324C27.8681 12.5318 28.8332 12.7304 29.7263 13.1155C30.6193 13.5006 31.4207 14.0638 32.0792 14.7691L31.9357 14.954L31.9269 14.9421V14.967C31.3751 15.7173 30.9822 16.5683 30.7714 17.4697C30.2806 16.5461 29.4637 15.8289 28.4729 15.4517C27.4822 15.0745 26.3852 15.0631 25.3865 15.4196C24.3878 15.7762 23.5555 16.4763 23.0448 17.3894C22.5341 18.3026 22.3798 19.3666 22.6107 20.383C22.8415 21.3993 23.4418 22.2988 24.2996 22.9137C25.1574 23.5286 26.2142 23.817 27.273 23.725C28.3318 23.6331 29.3203 23.1672 30.0543 22.4141C30.7883 21.661 31.2178 20.6721 31.2625 19.6318C31.2625 19.5723 31.2625 19.514 31.2625 19.4523C31.2616 17.9994 31.728 16.5832 32.5957 15.4048V15.3789L32.6023 15.3886C33.4583 14.2322 34.6586 13.3636 36.0386 12.9021C37.4186 12.4406 38.9106 12.4089 40.3098 12.8112C41.7089 13.2135 42.9467 14.0302 43.8531 15.1491C44.7595 16.268 45.2902 17.6344 45.3723 19.0605C45.4543 20.4867 45.0838 21.9028 44.3115 23.1144C43.5391 24.326 42.4029 25.2738 41.0588 25.8276C39.7146 26.3814 38.2284 26.5141 36.8042 26.2074C35.38 25.9008 34.0876 25.1699 33.1044 24.115C33.7403 23.3023 34.1819 22.3603 34.3968 21.3583C34.8661 22.2943 35.6674 23.0309 36.6508 23.4304C37.6342 23.8299 38.7324 23.865 39.7403 23.5291C40.7482 23.1932 41.5967 22.5094 42.1274 21.6053C42.658 20.7012 42.8345 19.6388 42.6238 18.6165C42.4131 17.5943 41.8296 16.6822 40.9824 16.0506C40.1352 15.4191 39.0823 15.1113 38.0203 15.1848C36.9584 15.2583 35.9601 15.7081 35.212 16.4501C34.4639 17.1921 34.0172 18.1755 33.9553 19.2167H33.9487C33.9487 19.2945 33.9487 19.3723 33.9487 19.4491C33.9487 20.8175 33.5345 22.1552 32.7584 23.293C31.9823 24.4308 30.8792 25.3176 29.5886 25.8413C28.298 26.3649 26.8779 26.5019 25.5078 26.235C24.1377 25.968 22.8792 25.3091 21.8914 24.3414C20.9036 23.3738 20.2309 22.141 19.9584 20.7989C19.6859 19.4568 19.8257 18.0656 20.3603 16.8014C20.8949 15.5371 21.8002 14.4565 22.9617 13.6963C24.1232 12.936 25.4888 12.5303 26.8857 12.5303L26.8923 12.5324Z" fill="#dde8fc" fill-opacity="0.75"/>
<path d="M87.3991 24.9279V26.7117C87.0488 26.8492 86.6726 26.9119 86.2955 26.8954C84.8498 26.8954 83.8577 26.2922 83.8577 24.849V24.2187C83.563 24.822 82.2244 27.0003 78.9566 27.0003C76.308 27.0003 74.188 25.7149 74.188 22.9852C74.188 20.2826 76.3576 19.1809 79.0372 18.8393C80.7235 18.6296 82.679 18.4728 83.6171 17.9474V17.7118C83.6171 15.5075 82.4384 15.0351 80.5899 15.0351C78.8242 15.0351 77.8045 15.5334 77.5904 16.714H75.019C75.2872 14.248 77.2957 12.9626 80.5899 12.9626C84.554 12.9626 86.322 14.4318 86.322 18.341V23.8544C86.3275 24.6122 86.6222 24.9538 87.3991 24.9279ZM83.6226 19.7842C82.7651 20.2036 81.3724 20.3615 79.2082 20.6771C77.5749 20.9128 76.9315 21.6209 76.9315 22.8285C76.9315 24.0609 77.7614 24.9538 79.3694 24.9538C80.2422 24.9661 81.1016 24.7423 81.8529 24.3071C82.6043 23.8718 83.2186 23.242 83.6281 22.4868L83.6226 19.7842Z" fill="#dde8fc" fill-opacity="0.75"/>
<path d="M92.3144 8.59302V26.9614H89.6084V8.59302H92.3144Z" fill="#dde8fc" fill-opacity="0.75"/>
<path d="M97.9941 8.59302V26.9614H95.2881V8.59302H97.9941Z" fill="#dde8fc" fill-opacity="0.75"/>
<path d="M113.083 20.8599H102.905C103.199 23.6156 104.913 24.8221 107.002 24.8221C108.315 24.8221 109.413 24.4545 110.137 23.4318H112.734C111.61 25.9766 109.681 26.9993 106.788 26.9993C103.681 26.9993 100.199 24.9529 100.199 19.994C100.199 15.06 103.601 12.9617 106.762 12.9617C110.109 12.9617 113.083 15.113 113.083 20.2048V20.8599ZM102.905 19.0221H110.435C110.193 16.3724 108.779 15.1389 106.765 15.1389C104.837 15.14 103.204 16.3995 102.909 19.0232L102.905 19.0221Z" fill="#dde8fc" fill-opacity="0.75"/>
<path d="M64.4677 12.982L59.8094 26.9981H57.2038L51.8867 8.93018H54.8135L58.6562 22.9203L61.7926 12.9939M64.5405 12.9939L67.678 22.9203L71.5208 8.93018H74.442L69.1249 26.9981H66.5116L61.8533 12.982" fill="#dde8fc" fill-opacity="0.75"/>
<path d="M115.364 11.6028H116.859L117.373 13.7487H120.843V15.8092H117.939V23.2524C117.939 24.4891 118.491 24.7659 119.577 24.7659H120.84V26.9983H118.767C116.498 26.9983 115.364 25.8091 115.364 23.4307V11.6028Z" fill="#dde8fc" fill-opacity="0.75"/>
<path d="M116.859 11.6028H117.947V13.7487H117.373L116.859 11.6028Z" fill="#dde8fc" fill-opacity="0.75"/>
</g>
<defs>
<clipPath id="clip0_3618_4341">
<rect width="120" height="38" fill="white" transform="translate(0.970215)"/>
</clipPath>
</defs>
</svg>
