<svg width="146" height="30" viewBox="0 0 146 30" fill="none" xmlns="http://www.w3.org/2000/svg">
<g clip-path="url(#clip0_3618_4390)">
<path d="M30.5658 8.34948L17.8867 0V4.66823L26.0205 9.97669L25.0636 13.0177H17.8867V16.8856H25.0636L26.0205 19.9267L17.8867 25.2351V29.9034L30.5658 21.5806L28.4925 14.965L30.5658 8.34948Z" fill="#dde8fc" fill-opacity="0.75"/>
<path d="M6.85548 16.8856H14.0057V13.0177H6.82891L5.89857 9.97669L14.0057 4.66823V0L1.32666 8.34948L3.39997 14.965L1.32666 21.5806L14.0323 29.9034V25.2351L5.89857 19.9267L6.85548 16.8856Z" fill="#dde8fc" fill-opacity="0.75"/>
<mask id="mask0_3618_4390" style="mask-type:alpha" maskUnits="userSpaceOnUse" x="1" y="0" width="30" height="30">
<path d="M30.5658 8.34948L17.8867 0V4.66823L26.0205 9.97669L25.0636 13.0177H17.8867V16.8856H25.0636L26.0205 19.9267L17.8867 25.2351V29.9034L30.5658 21.5806L28.4926 14.965L30.5658 8.34948Z" fill="url(#paint0_linear_3618_4390)"/>
<path d="M6.85548 16.8856H14.0057V13.0177H6.8289L5.89858 9.97669L14.0057 4.66823V0L1.32666 8.34948L3.39997 14.965L1.32666 21.5806L14.0323 29.9034V25.2351L5.89858 19.9267L6.85548 16.8856Z" fill="url(#paint1_linear_3618_4390)"/>
</mask>
<g mask="url(#mask0_3618_4390)">
<path d="M30.3717 0H1.34229V29.9034H30.3717V0Z" fill="url(#paint2_linear_3618_4390)" fill-opacity="0.25"/>
</g>
<path d="M55.7913 8.22339V10.8377H43.7956V13.5128H53.9879V16.127H43.7956V19.0656H55.7913V21.6799H40.7183V8.22339H55.7913Z" fill="#dde8fc" fill-opacity="0.75"/>
<path d="M57.4927 21.6799L64.3845 14.8705L57.688 8.22339H61.9246L66.6494 13.0264L71.1789 8.22339H75.1422L68.4651 14.8705L75.357 21.6799H71.0812L66.6494 16.735L61.5927 21.6799H57.4927Z" fill="#dde8fc" fill-opacity="0.75"/>
<path d="M83.6213 8.22339C89.2051 8.22339 92.563 11.0317 92.563 14.9516C92.563 18.8716 89.2051 21.6799 83.6213 21.6799C78.0375 21.6799 74.6987 18.8716 74.6987 14.9516C74.6987 11.0317 78.0375 8.22339 83.6213 8.22339ZM83.6213 10.7392C80.2634 10.7392 77.7881 12.4359 77.7881 14.9516C77.7881 17.4674 80.2634 19.1642 83.6213 19.1642C86.9985 19.1642 89.4738 17.4674 89.4738 14.9516C89.4738 12.4359 86.9985 10.7392 83.6213 10.7392Z" fill="#dde8fc" fill-opacity="0.75"/>
<path d="M103.693 8.22339C108.165 8.22339 110.86 10.7161 110.86 14.9314C110.86 19.1872 108.185 21.6799 103.732 21.6799H94.6709V8.22339H103.693ZM107.697 14.9314C107.697 12.2968 106.134 10.8377 103.303 10.8377H97.7369V19.0656H103.303C106.134 19.0656 107.697 17.5863 107.697 14.9314Z" fill="#dde8fc" fill-opacity="0.75"/>
<path d="M121.001 21.6799C116.292 21.6799 112.72 19.5332 112.72 15.5777V8.22339H115.801V15.2796C115.801 17.7245 118.332 18.8575 121.001 18.8575C123.689 18.8575 126.221 17.7443 126.221 15.2796V8.22339H129.282V15.5777C129.282 19.5332 125.73 21.6799 121.001 21.6799Z" fill="#dde8fc" fill-opacity="0.75"/>
<path d="M137.906 21.6799C135.376 21.6799 132.648 21.2119 130.711 20.3343L131.719 17.8379C133.458 18.6376 135.85 19.1447 138.004 19.1447C140.475 19.1447 142.788 18.6181 142.788 17.6819C142.788 16.9994 142.056 16.7068 140.534 16.4728L136.226 16.0047C132.905 15.5562 131.284 14.4056 131.284 12.3774C131.284 9.76406 134.032 8.22339 138.064 8.22339C140.495 8.22339 143.835 8.67193 145.555 9.45202L144.547 11.8313C142.847 11.1292 139.961 10.7782 137.925 10.7782C135.83 10.7782 134.447 11.2657 134.447 12.1628C134.447 12.7869 135.138 13.0989 136.917 13.3525L141.108 13.8205C144.31 14.2691 145.97 15.3612 145.97 17.4869C145.97 20.1782 142.452 21.6799 137.906 21.6799Z" fill="#dde8fc" fill-opacity="0.75"/>
</g>
<defs>
<linearGradient id="paint0_linear_3618_4390" x1="26.4642" y1="31.9593" x2="17.9012" y2="-3.26698" gradientUnits="userSpaceOnUse">
<stop stop-color="#0B46F9"/>
<stop offset="1" stop-color="#BBFBE0"/>
</linearGradient>
<linearGradient id="paint1_linear_3618_4390" x1="26.464" y1="31.9593" x2="17.9009" y2="-3.26698" gradientUnits="userSpaceOnUse">
<stop stop-color="#0B46F9"/>
<stop offset="1" stop-color="#BBFBE0"/>
</linearGradient>
<linearGradient id="paint2_linear_3618_4390" x1="3.20314" y1="6.72827" x2="17.9496" y2="17.6938" gradientUnits="userSpaceOnUse">
<stop offset="0.119792" stop-color="#8952FF" stop-opacity="0.47"/>
<stop offset="1" stop-color="#dde8fc" stop-opacity="0"/>
</linearGradient>
<clipPath id="clip0_3618_4390">
<rect width="145" height="30" fill="white" transform="translate(0.970215)"/>
</clipPath>
</defs>
</svg>
