<svg width="163" height="32" viewBox="0 0 163 32" fill="none" xmlns="http://www.w3.org/2000/svg">
<g opacity="0.75" clip-path="url(#clip0_3616_4166)">
<path d="M143.432 16.1315C142.6 15.5838 141.682 15.1943 140.814 14.7074C140.251 14.3909 139.651 14.1109 139.162 13.7092C138.329 13.0276 138.501 11.6887 139.37 11.1044C140.618 10.2767 142.686 10.7391 142.906 12.4312C142.906 12.4676 142.943 12.492 142.979 12.492H144.864C144.913 12.492 144.95 12.4555 144.938 12.4068C144.84 11.2382 144.387 10.2644 143.555 9.64364C142.759 9.0472 141.854 8.73071 140.887 8.73071C135.907 8.73071 135.454 13.977 138.134 15.6325C138.44 15.8273 141.07 17.1418 142.001 17.7139C142.93 18.286 143.224 19.3329 142.82 20.1606C142.453 20.9153 141.499 21.4387 140.545 21.3778C139.504 21.317 138.697 20.7571 138.415 19.8806C138.366 19.7224 138.342 19.4181 138.342 19.2842C138.342 19.2477 138.305 19.2111 138.268 19.2111H136.225C136.189 19.2111 136.152 19.2477 136.152 19.2842C136.152 20.7571 136.519 21.5726 137.522 22.3152C138.464 23.0211 139.492 23.3133 140.557 23.3133C143.347 23.3133 144.791 21.743 145.084 20.1119C145.341 18.5173 144.864 17.081 143.432 16.1315Z" fill="#dde8fc"/>
<path d="M54.71 8.99854H53.8046H52.8135C52.7768 8.99854 52.7523 9.02288 52.7401 9.04722L51.0638 14.5492C51.0393 14.6222 50.9415 14.6222 50.917 14.5492L49.2407 9.04722C49.2284 9.0107 49.2039 8.99854 49.1672 8.99854H48.1762H47.2707H46.0471C46.0104 8.99854 45.9736 9.03505 45.9736 9.07156V23.1186C45.9736 23.155 46.0104 23.1916 46.0471 23.1916H48.0905C48.1272 23.1916 48.1639 23.155 48.1639 23.1186V12.4433C48.1639 12.3581 48.2863 12.346 48.3108 12.419L49.9992 17.9575L50.1216 18.3469C50.1338 18.3835 50.1583 18.3957 50.1951 18.3957H51.7613C51.7979 18.3957 51.8224 18.3713 51.8346 18.3469L51.957 17.9575L53.6456 12.419C53.67 12.3338 53.7924 12.3581 53.7924 12.4433V23.1186C53.7924 23.155 53.8291 23.1916 53.8658 23.1916H55.9092C55.9459 23.1916 55.9826 23.155 55.9826 23.1186V9.07156C55.9826 9.03505 55.9459 8.99854 55.9092 8.99854H54.71Z" fill="#dde8fc"/>
<path d="M112.144 8.99854C112.108 8.99854 112.083 9.02288 112.071 9.04722L110.395 14.5492C110.371 14.6222 110.273 14.6222 110.248 14.5492L108.572 9.04722C108.56 9.0107 108.535 8.99854 108.498 8.99854H105.39C105.354 8.99854 105.317 9.03505 105.317 9.07156V23.1186C105.317 23.155 105.354 23.1916 105.39 23.1916H107.434C107.471 23.1916 107.508 23.155 107.508 23.1186V12.4433C107.508 12.3581 107.63 12.346 107.655 12.419L109.342 17.9575L109.465 18.3469C109.477 18.3835 109.502 18.3957 109.538 18.3957H111.105C111.141 18.3957 111.166 18.3713 111.178 18.3469L111.301 17.9575L112.989 12.419C113.014 12.3338 113.136 12.3581 113.136 12.4433V23.1186C113.136 23.155 113.173 23.1916 113.21 23.1916H115.253C115.289 23.1916 115.326 23.155 115.326 23.1186V9.07156C115.326 9.03505 115.289 8.99854 115.253 8.99854H112.144Z" fill="#dde8fc"/>
<path d="M85.7886 8.99854H81.9832H79.9398H76.1345C76.0978 8.99854 76.061 9.03505 76.061 9.07156V10.8244C76.061 10.8609 76.0978 10.8974 76.1345 10.8974H79.8664V23.1186C79.8664 23.155 79.9031 23.1916 79.9398 23.1916H81.9832C82.0199 23.1916 82.0566 23.155 82.0566 23.1186V10.8974H85.7886C85.8253 10.8974 85.8619 10.8609 85.8619 10.8244V9.07156C85.8619 9.03505 85.8375 8.99854 85.7886 8.99854Z" fill="#dde8fc"/>
<path d="M97.8417 23.1914H99.7009C99.7499 23.1914 99.7866 23.1428 99.7744 23.0941L95.9325 8.9984C95.9203 8.96188 95.8958 8.94971 95.8591 8.94971H95.1496H93.9015H93.1918C93.1551 8.94971 93.1306 8.97406 93.1183 8.9984L89.2763 23.0941C89.2641 23.1428 89.3008 23.1914 89.3498 23.1914H91.2096C91.2463 23.1914 91.2708 23.1671 91.283 23.1428L92.3965 19.0406C92.4086 19.0042 92.4331 18.9919 92.4699 18.9919H96.5815C96.6182 18.9919 96.6427 19.0163 96.6549 19.0406L97.7682 23.1428C97.7805 23.1671 97.8172 23.1914 97.8417 23.1914ZM92.9593 16.9835L94.4521 11.4937C94.4765 11.4207 94.5745 11.4207 94.5989 11.4937L96.0917 16.9835C96.1039 17.0322 96.0672 17.0808 96.0182 17.0808H93.0327C92.9837 17.0808 92.9471 17.0322 92.9593 16.9835Z" fill="#dde8fc"/>
<path d="M129.557 23.1914H131.416C131.465 23.1914 131.502 23.1428 131.49 23.0941L127.648 8.9984C127.636 8.96188 127.611 8.94971 127.574 8.94971H126.865H125.617H124.907C124.87 8.94971 124.846 8.97406 124.833 8.9984L120.992 23.0941C120.979 23.1428 121.016 23.1914 121.065 23.1914H122.925C122.962 23.1914 122.986 23.1671 122.999 23.1428L124.112 19.0406C124.124 19.0042 124.149 18.9919 124.185 18.9919H128.297C128.333 18.9919 128.358 19.0163 128.37 19.0406L129.483 23.1428C129.496 23.1671 129.52 23.1914 129.557 23.1914ZM124.674 16.9835L126.167 11.4937C126.192 11.4207 126.29 11.4207 126.314 11.4937L127.807 16.9835C127.819 17.0322 127.782 17.0808 127.733 17.0808H124.748C124.699 17.0808 124.662 17.0322 124.674 16.9835Z" fill="#dde8fc"/>
<path d="M64.2781 21.1101V16.7524C64.2781 16.7159 64.3148 16.6794 64.3516 16.6794H69.7964C69.8332 16.6794 69.8699 16.6428 69.8699 16.6063V14.8535C69.8699 14.817 69.8332 14.7805 69.7964 14.7805H64.3516C64.3148 14.7805 64.2781 14.7439 64.2781 14.7074V10.9827C64.2781 10.9462 64.3148 10.9096 64.3516 10.9096H70.5429C70.5796 10.9096 70.6163 10.8731 70.6163 10.8366V9.08378C70.6163 9.04727 70.5796 9.01074 70.5429 9.01074H64.2781H62.1614C62.1246 9.01074 62.0879 9.04727 62.0879 9.08378V10.9096V14.7926V16.6916V21.1953V23.1186C62.0879 23.1551 62.1246 23.1916 62.1614 23.1916H64.2781H70.7998C70.8365 23.1916 70.8733 23.1551 70.8733 23.1186V21.2684C70.8733 21.2319 70.8365 21.1953 70.7998 21.1953H64.3393C64.3026 21.1832 64.2781 21.1588 64.2781 21.1101Z" fill="#dde8fc"/>
<path d="M162.104 23.0699L155.031 15.8029C155.007 15.7786 155.007 15.7299 155.031 15.7056L161.395 9.13247C161.444 9.08378 161.407 9.01074 161.346 9.01074H158.74C158.715 9.01074 158.703 9.02292 158.691 9.03509L153.295 14.6101C153.246 14.6587 153.172 14.6222 153.172 14.5613V9.08378C153.172 9.04727 153.135 9.01074 153.099 9.01074H151.055C151.018 9.01074 150.981 9.04727 150.981 9.08378V23.1308C150.981 23.1673 151.018 23.2038 151.055 23.2038H153.099C153.135 23.2038 153.172 23.1673 153.172 23.1308V16.9472C153.172 16.8863 153.258 16.8498 153.295 16.8984L159.412 23.1794C159.424 23.1916 159.449 23.2038 159.461 23.2038H162.067C162.116 23.1916 162.153 23.1064 162.104 23.0699Z" fill="#dde8fc"/>
<path d="M32.0121 1.43945L19.6416 10.5688L21.942 5.18856L32.0121 1.43945Z" fill="#9893AF" stroke="#9893AF" stroke-width="0.25" stroke-linecap="round" stroke-linejoin="round"/>
<path d="M3.47803 1.43945L15.7384 10.654L13.5482 5.18856L3.47803 1.43945Z" fill="#A2A0AF" stroke="#A2A0AF" stroke-width="0.25" stroke-linecap="round" stroke-linejoin="round"/>
<path d="M27.558 22.6072L24.2666 27.6222L31.3144 29.5577L33.3334 22.7168L27.558 22.6072Z" fill="#A2A0AF" stroke="#A2A0AF" stroke-width="0.25" stroke-linecap="round" stroke-linejoin="round"/>
<path d="M2.16895 22.7168L4.17562 29.5577L11.2113 27.6222L7.93203 22.6072L2.16895 22.7168Z" fill="#A2A0AF" stroke="#A2A0AF" stroke-width="0.25" stroke-linecap="round" stroke-linejoin="round"/>
<path d="M10.8317 14.1352L8.87402 17.0809L15.8485 17.3974L15.616 9.91138L10.8317 14.1352Z" fill="#A2A0AF" stroke="#A2A0AF" stroke-width="0.25" stroke-linecap="round" stroke-linejoin="round"/>
<path d="M24.6582 14.1352L19.8007 9.82617L19.6416 17.3974L26.616 17.0809L24.6582 14.1352Z" fill="#A2A0AF" stroke="#A2A0AF" stroke-width="0.25" stroke-linecap="round" stroke-linejoin="round"/>
<path d="M11.2114 27.6221L15.4328 25.5894L11.7988 22.7654L11.2114 27.6221Z" fill="#A2A0AF" stroke="#A2A0AF" stroke-width="0.25" stroke-linecap="round" stroke-linejoin="round"/>
<path d="M20.0581 25.5894L24.2672 27.6221L23.6921 22.7654L20.0581 25.5894Z" fill="#A2A0AF" stroke="#A2A0AF" stroke-width="0.25" stroke-linecap="round" stroke-linejoin="round"/>
<path d="M24.2672 27.6224L20.0581 25.5896L20.4007 28.3162L20.3639 29.4726L24.2672 27.6224Z" fill="#C2BFD1" stroke="#C2BFD1" stroke-width="0.25" stroke-linecap="round" stroke-linejoin="round"/>
<path d="M11.2114 27.6224L15.1269 29.4726L15.1024 28.3162L15.4328 25.5896L11.2114 27.6224Z" fill="#C2BFD1" stroke="#C2BFD1" stroke-opacity="0.698039" stroke-width="0.25" stroke-linecap="round" stroke-linejoin="round"/>
<path d="M15.2002 20.9638L11.7007 19.9414L14.1723 18.8093L15.2002 20.9638Z" fill="#020618" stroke="#020618" stroke-width="0.25" stroke-linecap="round" stroke-linejoin="round"/>
<path d="M20.2905 20.9638L21.3184 18.8093L23.8023 19.9414L20.2905 20.9638Z" fill="#020618" stroke="#020618" stroke-width="0.25" stroke-linecap="round" stroke-linejoin="round"/>
<path d="M11.2113 27.6222L11.8231 22.6072L7.93213 22.7168L11.2113 27.6222Z" fill="#9893AF" stroke="#9893AF" stroke-width="0.25" stroke-linecap="round" stroke-linejoin="round"/>
<path d="M23.6675 22.6072L24.2671 27.6222L27.5585 22.7168L23.6675 22.6072Z" fill="#9893AF" stroke="#9893AF" stroke-width="0.25" stroke-linecap="round" stroke-linejoin="round"/>
<path d="M26.616 17.0808L19.6416 17.3973L20.2901 20.9639L21.3179 18.8093L23.8018 19.9414L26.616 17.0808Z" fill="#9893AF" stroke="#9893AF" stroke-width="0.25" stroke-linecap="round" stroke-linejoin="round"/>
<path d="M11.7005 19.9414L14.1721 18.8093L15.2 20.9639L15.8485 17.3973L8.87402 17.0808L11.7005 19.9414Z" fill="#9893AF" stroke="#9893AF" stroke-width="0.25" stroke-linecap="round" stroke-linejoin="round"/>
<path d="M8.87451 17.0808L11.7989 22.7654L11.701 19.9414L8.87451 17.0808Z" fill="#7F8FA9" stroke="#7F8FA9" stroke-width="0.25" stroke-linecap="round" stroke-linejoin="round"/>
<path d="M23.802 19.9414L23.6919 22.7654L26.6163 17.0808L23.802 19.9414Z" fill="#7F8FA9" stroke="#7F8FA9" stroke-width="0.25" stroke-linecap="round" stroke-linejoin="round"/>
<path d="M15.8488 17.3975L15.2002 20.9641L16.02 25.1756L16.2036 19.625L15.8488 17.3975Z" fill="#7F8FA8" stroke="#7F8FA8" stroke-width="0.25" stroke-linecap="round" stroke-linejoin="round"/>
<path d="M19.642 17.3975L19.2993 19.6129L19.4706 25.1756L20.2904 20.9641L19.642 17.3975Z" fill="#7F8FA8" stroke="#7F8FA8" stroke-width="0.25" stroke-linecap="round" stroke-linejoin="round"/>
<path d="M20.2905 20.9639L19.4707 25.1755L20.058 25.5894L23.6921 22.7654L23.8022 19.9414L20.2905 20.9639Z" fill="#B8B5C5" stroke="#B8B5C5" stroke-width="0.25" stroke-linecap="round" stroke-linejoin="round"/>
<path d="M11.7007 19.9414L11.7986 22.7654L15.4326 25.5894L16.02 25.1755L15.2002 20.9639L11.7007 19.9414Z" fill="#B8B5C5" stroke="#B8B5C5" stroke-width="0.25" stroke-linecap="round" stroke-linejoin="round"/>
<path d="M20.3639 29.4725L20.4005 28.3162L20.0824 28.0483H15.4084L15.1024 28.3162L15.1269 29.4725L11.2114 27.6223L12.5818 28.7422L15.3594 30.6533H20.1191L22.9089 28.7422L24.267 27.6223L20.3639 29.4725Z" fill="#9893AF" stroke="#9893AF" stroke-width="0.25" stroke-linecap="round" stroke-linejoin="round"/>
<path d="M20.0576 25.5893L19.4702 25.1755H16.0197L15.4325 25.5893L15.1021 28.316L15.408 28.0482H20.082L20.4002 28.316L20.0576 25.5893Z" fill="#101828" stroke="#161616" stroke-width="0.25" stroke-linecap="round" stroke-linejoin="round"/>
<path d="M32.5386 11.1652L33.5787 6.12584L32.0125 1.43945L20.0581 10.2645L24.6587 14.1353L31.156 16.022L32.5876 14.3544L31.9636 13.904L32.9546 13.0033L32.196 12.419L33.1872 11.6643L32.5386 11.1652Z" fill="#7B778D" stroke="#7B778D" stroke-width="0.25" stroke-linecap="round" stroke-linejoin="round"/>
<path d="M1.91211 6.12584L2.96439 11.1652L2.29142 11.6643L3.29476 12.419L2.53614 13.0033L3.52724 13.904L2.90321 14.3544L4.33481 16.022L10.8321 14.1353L15.4327 10.2645L3.4783 1.43945L1.91211 6.12584Z" fill="#7B778D" stroke="#7B778D" stroke-width="0.25" stroke-linecap="round" stroke-linejoin="round"/>
<path d="M31.1558 16.0219L24.6585 14.1353L26.6163 17.081L23.6919 22.7655L27.5584 22.7168H33.3337L31.1558 16.0219Z" fill="#B8B5C5" stroke="#B8B5C5" stroke-width="0.25" stroke-linecap="round" stroke-linejoin="round"/>
<path d="M10.8319 14.1353L4.33469 16.0219L2.16895 22.7168H7.93203L11.7985 22.7655L8.87419 17.081L10.8319 14.1353Z" fill="#B8B5C5" stroke="#B8B5C5" stroke-width="0.25" stroke-linecap="round" stroke-linejoin="round"/>
<path d="M19.6418 17.3974L20.0578 10.2643L21.9421 5.18848H13.5483L15.4326 10.2643L15.8486 17.3974L16.0077 19.6371L16.02 25.1756H19.4705L19.4827 19.6371L19.6418 17.3974Z" fill="#B8B5C5" stroke="#B8B5C5" stroke-width="0.25" stroke-linecap="round" stroke-linejoin="round"/>
</g>
<defs>
<clipPath id="clip0_3616_4166">
<rect width="162" height="31" fill="white" transform="translate(0.970215 0.5)"/>
</clipPath>
</defs>
</svg>
