<svg width="166" height="30" viewBox="0 0 166 30" fill="none" xmlns="http://www.w3.org/2000/svg">
<g clip-path="url(#clip0_3617_4267)">
<path d="M13.3989 24.7346V13.9712L9.17984 21.9849H7.43949L3.22044 13.9712V24.7346H0.0297852V8.4978H3.43139L8.25692 17.7423L13.1352 8.4978H16.5104V24.7346H13.3989Z" fill="#dde8fc" fill-opacity="0.75"/>
<path d="M20.1769 27.0652C20.4142 27.1438 20.6779 27.1962 20.9416 27.2486C21.1525 27.2747 21.3635 27.3009 21.5744 27.3009C21.759 27.3009 21.9436 27.2747 22.1282 27.1962C22.3128 27.0914 22.471 26.9605 22.5765 26.8034C22.7347 26.5677 22.8929 26.2796 22.9984 26.0177C23.1302 25.6772 23.2884 25.2582 23.4466 24.7607L18.6738 12.7664H21.8645L25.1342 22.1156L28.0348 12.7925H30.9354L25.8462 27.1176C25.5562 27.9295 25.0551 28.6627 24.3432 29.1865C23.5785 29.7365 22.6556 30.0245 21.7063 29.9983C21.4426 29.9983 21.2053 29.9722 20.9679 29.946C20.7042 29.8936 20.4406 29.8412 20.1769 29.7626V27.0652Z" fill="#dde8fc" fill-opacity="0.75"/>
<path d="M44.4886 21.9587V24.7346H33.1235V8.4978H44.2776V11.2738H36.3142V15.202H43.2229V17.7685H36.3142V22.011L44.4886 21.9587Z" fill="#dde8fc" fill-opacity="0.75"/>
<path d="M53.7965 24.1324C53.2955 24.3419 52.7945 24.5252 52.2671 24.6823C51.6606 24.8656 51.0277 24.9704 50.3685 24.9442C49.9466 24.9442 49.5511 24.8918 49.1555 24.7871C48.7864 24.6823 48.4436 24.5252 48.1535 24.2633C47.8634 24.0014 47.6261 23.7133 47.4679 23.3467C47.2833 22.9277 47.2042 22.4563 47.2042 21.9849V15.0974H45.6221V12.7404H47.2042V8.8645H50.2894V12.7404H52.8208V15.0974H50.2894V20.9636C50.2894 21.3826 50.3949 21.6968 50.6322 21.8802C50.8695 22.0635 51.1596 22.142 51.4496 22.142C51.7661 22.142 52.0825 22.0897 52.3989 21.9849C52.7153 21.8802 52.9527 21.7754 53.1373 21.723L53.7965 24.1324Z" fill="#dde8fc" fill-opacity="0.75"/>
<path d="M66.8758 24.7344H63.7906V18.004C63.7906 17.0612 63.606 16.3541 63.2632 15.9089C62.8941 15.4637 62.3403 15.2018 61.7602 15.228C61.4701 15.228 61.1537 15.3066 60.89 15.4113C60.5736 15.5423 60.2835 15.6994 60.0198 15.9351C59.7298 16.1708 59.4661 16.4327 59.2551 16.7207C59.0178 17.035 58.8596 17.3755 58.7541 17.7159V24.7082H55.6689V8H58.7541V14.9399C59.176 14.1805 59.8089 13.552 60.5736 13.1329C61.3383 12.7139 62.2085 12.5044 63.105 12.5044C63.7642 12.4782 64.4235 12.6092 65.03 12.8972C65.5046 13.1329 65.9001 13.4996 66.1902 13.971C66.4803 14.4424 66.6648 14.9399 66.7703 15.4899C66.8758 16.066 66.9285 16.6422 66.9285 17.2183V24.7344H66.8758Z" fill="#dde8fc" fill-opacity="0.75"/>
<path d="M75.3925 24.9703C74.496 24.9703 73.5994 24.8132 72.7556 24.4727C71.2526 23.8704 70.066 22.6657 69.4595 21.173C69.1694 20.4135 69.0112 19.6279 69.0112 18.816C69.0112 17.978 69.1431 17.1661 69.4595 16.4067C69.7496 15.6734 70.1715 14.9925 70.7252 14.4164C71.3053 13.8402 71.9909 13.3688 72.7293 13.0546C73.5731 12.7141 74.4696 12.5308 75.3925 12.5308C76.2891 12.5046 77.1856 12.6879 78.0294 13.0284C78.7678 13.3426 79.4534 13.7878 80.0071 14.364C80.5609 14.9401 80.9828 15.5948 81.2465 16.3281C81.5365 17.0614 81.6684 17.8732 81.6684 18.6589C81.6684 18.8684 81.6684 19.0517 81.6684 19.235C81.6684 19.3922 81.642 19.5493 81.6156 19.6802H72.281C72.3074 20.1254 72.4392 20.5445 72.6238 20.9373C72.9666 21.6444 73.5731 22.1943 74.3378 22.4824C74.7069 22.6133 75.1025 22.6919 75.498 22.6919C76.1045 22.6919 76.711 22.5348 77.2384 22.2467C77.7394 21.9848 78.1349 21.592 78.3459 21.0682L80.9828 21.8015C80.5081 22.7443 79.7698 23.5299 78.8469 24.0537C77.8185 24.7084 76.6055 24.9965 75.3925 24.9703ZM78.5305 17.7423C78.4777 16.9305 78.1349 16.1448 77.5284 15.5686C76.6319 14.7568 75.3398 14.5473 74.2059 14.9663C73.8631 15.0973 73.5203 15.3068 73.2566 15.5686C72.9666 15.8305 72.7556 16.1448 72.5711 16.5114C72.3865 16.9043 72.281 17.2971 72.2546 17.7161H78.5305V17.7423Z" fill="#dde8fc" fill-opacity="0.75"/>
<path d="M91.0039 15.4115C90.1337 15.4115 89.2899 15.5949 88.4989 15.9353C87.7869 16.2496 87.2331 16.7995 86.9167 17.4804V24.7346H83.8315V12.7403H86.653V15.3068C86.864 14.914 87.1013 14.5211 87.4177 14.2069C87.7078 13.8926 88.0242 13.6045 88.367 13.3426C88.6834 13.107 89.0262 12.9236 89.3954 12.7927C89.7118 12.6617 90.0546 12.6094 90.3974 12.6094H90.7666C90.8457 12.6094 90.9248 12.6094 91.0039 12.6356V15.4115Z" fill="#dde8fc" fill-opacity="0.75"/>
<path d="M98.9151 8.54952H101.842L103.688 13.9181L105.534 8.54952H108.487L105.692 15.9347L107.775 21.12L112.416 8.49714H115.87L109.225 24.734H106.536L103.714 17.925L100.893 24.734H98.2295L91.6108 8.47095H95.0124L99.6534 21.0938L101.684 15.9085L98.9151 8.54952Z" fill="#dde8fc" fill-opacity="0.75"/>
<path d="M119.588 24.9701C119.034 24.9701 118.481 24.8653 117.953 24.682C117.479 24.4987 117.03 24.2368 116.635 23.8701C116.266 23.5297 115.976 23.1369 115.765 22.6655C115.554 22.1941 115.448 21.6703 115.448 21.1466C115.448 20.5966 115.58 20.0728 115.817 19.5753C116.081 19.1039 116.424 18.6848 116.872 18.3444C117.373 17.9778 117.901 17.7159 118.507 17.5587C119.193 17.3492 119.878 17.2707 120.59 17.2707C121.118 17.2707 121.645 17.323 122.172 17.4016C122.647 17.4802 123.095 17.6111 123.544 17.7944V17.0874C123.544 16.3017 123.306 15.6732 122.858 15.2542C122.41 14.8351 121.724 14.6256 120.854 14.5995C120.221 14.5995 119.562 14.7042 118.955 14.9399C118.296 15.2018 117.663 15.5422 117.057 15.9351L116.107 13.9971C117.584 13.002 119.351 12.452 121.118 12.4782C122.858 12.4782 124.203 12.8972 125.152 13.7352C126.101 14.5733 126.602 15.8041 126.602 17.4016V21.1204C126.576 21.3561 126.629 21.5918 126.787 21.8013C126.945 21.9584 127.13 22.037 127.341 22.037V24.6558C126.892 24.7606 126.444 24.8129 125.969 24.8129C125.495 24.8391 125.02 24.7082 124.625 24.4201C124.308 24.1582 124.097 23.7916 124.045 23.3988L123.965 22.7441C123.438 23.4249 122.779 23.9749 122.014 24.3416C121.302 24.7868 120.458 24.9701 119.588 24.9701ZM120.458 22.7441C120.959 22.7441 121.46 22.6655 121.935 22.4822C122.357 22.325 122.726 22.0893 123.016 21.7489C123.306 21.5656 123.517 21.2251 123.517 20.8847V19.5229C123.122 19.3919 122.726 19.261 122.331 19.1824C121.909 19.1039 121.513 19.0515 121.091 19.0515C120.406 19.0253 119.72 19.2086 119.14 19.6014C118.665 19.8895 118.375 20.4133 118.375 20.9632C118.375 21.4608 118.586 21.9322 118.982 22.2465C119.404 22.5607 119.931 22.7441 120.458 22.7441Z" fill="#dde8fc" fill-opacity="0.75"/>
<path d="M129.741 8.02563H132.826V20.8842C132.8 21.2508 132.905 21.6174 133.142 21.9055C133.38 22.1674 133.722 22.2983 134.065 22.2721C134.276 22.2721 134.487 22.246 134.672 22.1936C134.883 22.1412 135.094 22.0626 135.305 21.9579L135.727 24.2887C135.252 24.4982 134.777 24.6553 134.276 24.7339C133.775 24.8386 133.274 24.891 132.773 24.891C131.798 24.891 131.059 24.6291 130.532 24.1315C130.004 23.6339 129.741 22.9007 129.741 21.9579V8.02563Z" fill="#dde8fc" fill-opacity="0.75"/>
<path d="M137.255 8.02588H140.341V20.8844C140.314 21.251 140.42 21.6177 140.657 21.9057C140.894 22.1676 141.237 22.2986 141.58 22.2724C141.791 22.2724 142.002 22.2462 142.186 22.1938C142.397 22.1414 142.608 22.0629 142.819 21.9581L143.241 24.2889C142.767 24.4984 142.292 24.6555 141.791 24.7341C141.29 24.8389 140.789 24.8912 140.288 24.8912C139.312 24.8912 138.574 24.6293 138.046 24.1318C137.519 23.6342 137.255 22.9009 137.255 21.9581V8.02588Z" fill="#dde8fc" fill-opacity="0.75"/>
<path d="M150.413 24.9702C149.516 24.9702 148.619 24.8131 147.776 24.4727C146.273 23.8703 145.086 22.6656 144.506 21.1729C144.216 20.4134 144.058 19.6278 144.058 18.8159C144.058 18.0041 144.189 17.1661 144.506 16.4066C144.796 15.6733 145.218 14.9924 145.772 14.4163C146.352 13.8401 147.037 13.3688 147.776 13.0545C148.619 12.714 149.516 12.5307 150.439 12.5569C151.335 12.5307 152.232 12.714 153.076 13.0545C153.814 13.3688 154.5 13.814 155.054 14.3901C155.607 14.9662 156.029 15.621 156.293 16.3542C156.583 17.0875 156.715 17.8994 156.715 18.685C156.715 18.8945 156.715 19.0778 156.715 19.2612C156.715 19.4183 156.688 19.5754 156.662 19.7064H147.327C147.354 20.1516 147.486 20.5706 147.67 20.9634C148.013 21.6705 148.619 22.2205 149.384 22.5085C149.753 22.6395 150.149 22.718 150.544 22.718C151.151 22.718 151.757 22.5609 152.285 22.2728C152.786 22.0109 153.181 21.5919 153.392 21.0943L156.029 21.8276C155.555 22.7704 154.816 23.5561 153.893 24.0798C152.839 24.7084 151.626 25.0226 150.413 24.9702ZM153.55 17.7422C153.498 16.9304 153.155 16.1447 152.548 15.5686C151.652 14.7567 150.36 14.5472 149.226 14.9663C148.883 15.0972 148.54 15.3067 148.277 15.5686C147.987 15.8305 147.776 16.1447 147.591 16.5114C147.406 16.9042 147.301 17.297 147.275 17.716H153.55V17.7422Z" fill="#dde8fc" fill-opacity="0.75"/>
<path d="M165.97 24.1324C165.469 24.3419 164.968 24.5252 164.441 24.6823C163.834 24.8656 163.202 24.9704 162.542 24.9442C162.12 24.9442 161.725 24.8918 161.329 24.7871C160.96 24.6823 160.617 24.5252 160.327 24.2633C160.037 24.0014 159.8 23.7133 159.642 23.3467C159.457 22.9277 159.378 22.4563 159.378 21.9849V15.0974H157.796V12.7404H159.378V8.8645H162.463V12.7404H164.995V15.0974H162.463V20.9636C162.463 21.3826 162.569 21.6968 162.806 21.8802C163.043 22.0635 163.333 22.142 163.623 22.142C163.94 22.142 164.256 22.0897 164.573 21.9849C164.889 21.8802 165.126 21.7754 165.311 21.723L165.97 24.1324Z" fill="#dde8fc" fill-opacity="0.75"/>
</g>
<defs>
<clipPath id="clip0_3617_4267">
<rect width="165.941" height="30" fill="white" transform="translate(0.0297852)"/>
</clipPath>
</defs>
</svg>
