<svg width="86" height="26" viewBox="0 0 86 26" fill="none" xmlns="http://www.w3.org/2000/svg">
<g clip-path="url(#clip0_3618_4366)">
<path d="M42.7553 12.2439C41.8942 11.8874 40.8425 11.5902 39.6001 11.3518H39.5737C38.3667 11.1325 37.4613 10.9311 36.8578 10.7477C36.2543 10.5654 35.7796 10.3183 35.4333 10.007C35.0869 9.69626 34.9143 9.26626 34.9143 8.71716C34.9143 7.91216 35.2073 7.29936 35.7928 6.87866C36.3789 6.45796 37.1508 6.24736 38.1091 6.24736C39.1566 6.24736 40.0035 6.52166 40.6519 7.07076C41.2337 7.56386 41.5901 8.19026 41.721 8.94896C41.7469 9.10026 41.871 9.21186 42.0199 9.21346L44.966 9.23636C45.1466 9.23796 45.2912 9.07796 45.2733 8.89236C45.1746 7.87736 44.8499 6.95436 44.2997 6.12376C43.6872 5.20026 42.844 4.48183 41.7701 3.96915C40.6962 3.45702 39.476 3.20068 38.1091 3.20068C36.8134 3.20068 35.6466 3.44777 34.608 3.94194C33.57 4.43611 32.7622 5.12186 32.1851 6.00026C31.608 6.87866 31.3198 7.86646 31.3198 8.96416C31.3198 10.1719 31.5769 11.1418 32.0917 11.8732C32.6064 12.6052 33.2807 13.1587 34.1149 13.5337C34.9491 13.9087 35.9517 14.2058 37.1233 14.4257L37.2564 14.4529C38.4982 14.6908 39.4264 14.9014 40.0389 15.0843C40.6513 15.2677 41.1344 15.5235 41.4898 15.8527C41.8446 16.182 42.022 16.6304 42.022 17.1975C42.022 18.003 41.7025 18.6338 41.0637 19.091C40.4248 19.5487 39.5991 19.7773 38.5874 19.7773C37.3799 19.7773 36.4042 19.4616 35.6587 18.8303C34.9803 18.2561 34.5811 17.5187 34.4613 16.6185C34.4407 16.4628 34.315 16.3447 34.1629 16.3425L31.2205 16.2968C31.0415 16.2941 30.8968 16.4498 30.9106 16.6337C30.994 17.7407 31.3298 18.7383 31.918 19.6265C32.5658 20.6056 33.4576 21.3741 34.5938 21.9319C35.7295 22.4903 37.0341 22.769 38.5077 22.769C39.8741 22.769 41.0991 22.5132 42.1819 22.0005C43.2643 21.4884 44.1123 20.7792 44.7247 19.8736C45.3372 18.968 45.6434 17.9481 45.6434 16.8133C45.6434 15.6056 45.3768 14.6314 44.8446 13.8902C44.3124 13.1495 43.6159 12.6009 42.7553 12.2439Z" fill="#dde8fc" fill-opacity="0.75"/>
<path d="M60.8473 19.6406H60.3875C60.1214 19.6406 59.9123 19.5677 59.7618 19.4208C59.6108 19.2749 59.5353 19.0365 59.5353 18.7073V13.4651C59.5353 11.8003 59.0205 10.5333 57.9915 9.66414C56.9619 8.79554 55.7497 8.35254 53.8505 8.35254C52.0575 8.35254 50.6567 8.75424 49.5564 9.54064C48.5533 10.2579 47.9487 11.2403 47.7417 12.4893C47.7095 12.6836 47.8521 12.8616 48.0427 12.8616H50.7486C50.8843 12.8616 51.0057 12.7696 51.0416 12.6346C51.1652 12.1726 51.4376 11.7954 51.859 11.5031C52.3468 11.1646 52.9265 10.9954 53.69 10.9954C55.1298 10.9954 56.1536 11.9102 56.1536 13.273V13.6992C56.1536 13.8733 56.0168 14.0143 55.8479 14.0143H53.397C51.4091 14.0143 49.9001 14.417 48.8711 15.2219C47.8415 16.0274 47.3267 17.1709 47.3267 18.6523C47.3267 19.9335 47.7972 20.9398 48.738 21.6712C49.444 22.2198 50.2877 22.5366 51.1562 22.6753C51.8199 22.7815 52.5015 22.8201 53.1668 22.7102C53.8637 22.5953 54.4297 22.2993 54.9962 21.8769C55.5052 21.4981 55.9297 21.0127 56.3172 20.4205C56.5063 20.0858 57.002 20.2203 57.002 20.6072V21.0725C57.0015 21.9183 57.6662 22.604 58.4867 22.604H60.8473C61.0163 22.604 61.153 22.4631 61.153 22.2889V19.9552C61.153 19.7811 61.0163 19.6406 60.8473 19.6406ZM56.1541 16.8139C56.1541 17.4909 56.0163 18.0808 55.7412 18.5837C55.1647 19.6385 54.133 20.1892 52.9719 20.1892C52.2972 20.1892 51.756 20.0249 51.3479 19.6956C50.9392 19.3664 50.7354 18.9271 50.7354 18.378C50.7354 17.7565 50.9619 17.2759 51.4144 16.9374C51.8669 16.5994 52.51 16.4296 53.3447 16.4296H55.8484C56.0173 16.4296 56.1541 16.5706 56.1541 16.7447V16.8139Z" fill="#dde8fc" fill-opacity="0.75"/>
<path d="M70.7119 3.40137H67.1908C65.3333 3.40137 63.8275 4.95355 63.8275 6.86824V8.39154C63.8275 8.56564 63.6908 8.70664 63.5218 8.70664H61.5113C61.3423 8.70664 61.2056 8.84764 61.2056 9.02174V11.3826C61.2056 11.5568 61.3423 11.6978 61.5113 11.6978H63.5218C63.6908 11.6978 63.8275 11.8387 63.8275 12.0129V22.2893C63.8275 22.4634 63.9643 22.6044 64.1332 22.6044H66.8766C67.0456 22.6044 67.1823 22.4634 67.1823 22.2893V12.0129C67.1823 11.8387 67.3191 11.6978 67.488 11.6978H70.685C70.8539 11.6978 70.9907 11.5568 70.9907 11.3826V9.02174C70.9907 8.84764 70.8539 8.70664 70.685 8.70664H67.488C67.3191 8.70664 67.1823 8.56564 67.1823 8.39154V7.02274C67.1823 6.67444 67.4564 6.39254 67.7937 6.39254H70.7114C70.8803 6.39254 71.0171 6.25154 71.0171 6.07744V3.71649C71.0171 3.54233 70.8808 3.40137 70.7119 3.40137Z" fill="#dde8fc" fill-opacity="0.75"/>
<path d="M84.1519 11.5444C83.5574 10.5201 82.7448 9.73323 81.7158 9.18403C80.6862 8.63543 79.4967 8.35303 78.1482 8.35303C76.7997 8.35303 75.6361 8.65833 74.607 9.25263C73.5775 9.84753 72.7786 10.6889 72.211 11.7773C71.6429 12.8664 71.3589 14.1421 71.3589 15.6061C71.3589 17.0701 71.6519 18.2914 72.2374 19.3799C72.8235 20.4683 73.6619 21.3054 74.7533 21.891C75.8446 22.4766 77.1271 22.7694 78.6007 22.7694C79.7364 22.7694 80.7528 22.5544 81.6493 22.1245C82.5453 21.6951 83.2686 21.1046 83.8187 20.3546C84.2897 19.7124 84.6113 19.0092 84.7834 18.2457C84.8283 18.0476 84.6831 17.8571 84.4856 17.8571H81.7295C81.5975 17.8571 81.4819 17.9452 81.4397 18.0742C81.2454 18.6658 80.9027 19.1333 80.4111 19.4762C79.8605 19.8604 79.1772 20.0525 78.361 20.0525C77.6862 20.0525 77.0965 19.9061 76.5907 19.6133C76.0849 19.3211 75.6857 18.9091 75.3927 18.3785C75.277 18.1689 75.1825 17.9474 75.107 17.7194C75.0262 17.4745 74.9682 17.2219 74.928 16.9661C74.9143 16.8769 74.9016 16.7865 74.8911 16.6962C74.8705 16.5101 75.0136 16.3473 75.1952 16.3473H84.6994C84.8536 16.3473 84.9856 16.2298 85.003 16.0714C85.0162 15.9555 85.0252 15.8374 85.0299 15.716C85.0389 15.4967 85.0431 15.2953 85.0431 15.1125C85.0431 13.7589 84.7464 12.5693 84.1519 11.5444ZM81.296 13.9592H75.3436C75.1482 13.9592 75.0009 13.7725 75.0442 13.5761C75.1392 13.1456 75.304 12.757 75.5384 12.4087C75.8399 11.9607 76.2306 11.6173 76.71 11.3795C77.1894 11.1417 77.7126 11.0225 78.2807 11.0225C79.2036 11.0225 79.9671 11.2788 80.5706 11.7909C81.0885 12.2307 81.4296 12.825 81.5949 13.5744C81.6382 13.7714 81.4919 13.9592 81.296 13.9592Z" fill="#dde8fc" fill-opacity="0.75"/>
<path d="M24.0655 12.998H21.4562C20.6769 12.998 20.0455 13.649 20.0455 14.4523V18.3561C20.0455 19.1594 19.414 19.8103 18.6347 19.8103H8.25396C7.47466 19.8103 6.84326 20.4612 6.84326 21.2645V23.9542C6.84326 24.7575 7.47466 25.4084 8.25396 25.4084H19.2355C20.0149 25.4084 20.6373 24.7575 20.6373 23.9542V21.7963C20.6373 20.993 21.2688 20.4231 22.0481 20.4231H24.065C24.8443 20.4231 25.4758 19.7722 25.4758 18.9689V14.4354C25.4758 13.6321 24.8448 12.998 24.0655 12.998Z" fill="#dde8fc" fill-opacity="0.75"/>
<path d="M6.84241 7.65482C6.84241 6.85152 7.47391 6.20062 8.25321 6.20062H18.6276C19.4069 6.20062 20.0383 5.54972 20.0383 4.7464V2.05675C20.0383 1.25345 19.4069 0.602539 18.6276 0.602539H7.65181C6.87251 0.602539 6.24111 1.25345 6.24111 2.05675V4.12923C6.24111 4.93253 5.60961 5.58342 4.83031 5.58342H2.82239C2.04308 5.58342 1.41162 6.23432 1.41162 7.03762V11.5761C1.41162 12.3794 2.04572 12.9976 2.82503 12.9976H5.43432C6.21361 12.9976 6.84511 12.3467 6.84511 11.5434L6.84241 7.65482Z" fill="#dde8fc" fill-opacity="0.75"/>
<path d="M12.2152 10.1709H14.7216C15.5383 10.1709 16.201 10.8544 16.201 11.6958V14.2794C16.201 15.1213 15.5378 15.8043 14.7216 15.8043H12.2152C11.3984 15.8043 10.7358 15.1208 10.7358 14.2794V11.6958C10.7358 10.8539 11.399 10.1709 12.2152 10.1709Z" fill="#dde8fc" fill-opacity="0.75"/>
</g>
<defs>
<clipPath id="clip0_3618_4366">
<rect width="85" height="26" fill="white" transform="translate(0.970215)"/>
</clipPath>
</defs>
</svg>
