<svg width="119" height="26" viewBox="0 0 119 26" fill="none" xmlns="http://www.w3.org/2000/svg">
<path d="M43.7209 21.9074C41.6311 21.9074 39.3273 21.2057 36.8097 19.8023V16.7671C39.1792 18.35 41.4912 19.1414 43.7455 19.1414C44.7822 19.1414 45.605 18.9538 46.2138 18.5785C46.8391 18.1868 47.1518 17.6483 47.1518 16.9629C47.1518 16.3428 46.8638 15.8533 46.2879 15.4943C45.7119 15.1189 44.8234 14.7844 43.6221 14.4907C41.4665 13.9359 40.002 13.4626 39.2286 13.071C37.5173 12.2061 36.6616 10.9088 36.6616 9.17905C36.6616 7.69407 37.2951 6.51915 38.5622 5.65427C39.8292 4.78939 41.3925 4.35696 43.2519 4.35696C45.5227 4.35696 47.5714 5.00969 49.3979 6.31517V9.35039C47.3081 7.8491 45.2594 7.09845 43.2519 7.09845C42.1988 7.09845 41.3266 7.29427 40.6355 7.68591C39.9444 8.07755 39.5989 8.62422 39.5989 9.32591C39.5989 9.75019 39.7963 10.1174 40.1912 10.4274C40.5862 10.7211 41.014 10.9496 41.4747 11.1128C41.9519 11.2596 42.6595 11.4473 43.5975 11.6758C44.5848 11.9205 45.3993 12.1572 46.041 12.3856C46.6993 12.6141 47.3657 12.9323 48.0403 13.3402C48.715 13.7319 49.2169 14.2296 49.546 14.8334C49.8916 15.4372 50.0643 16.1552 50.0643 16.9874C50.0643 18.5377 49.4637 19.7452 48.2625 20.6101C47.0777 21.475 45.5638 21.9074 43.7209 21.9074Z" fill="#dde8fc" fill-opacity="0.75"/>
<path d="M56.0071 21.9074C55.4312 21.9074 54.8717 21.8421 54.3287 21.7116C53.8021 21.581 53.292 21.3771 52.7983 21.0996C52.3047 20.8059 51.9015 20.3898 51.5889 19.8513C51.2762 19.2965 51.1199 18.6519 51.1199 17.9176C51.1035 16.5958 51.5642 15.5922 52.5021 14.9068C53.4401 14.2051 54.7812 13.8543 56.5254 13.8543H60.4993V13.071C60.4993 12.353 60.2032 11.8145 59.6108 11.4555C59.0184 11.0801 58.2532 10.8925 57.3153 10.8925C55.5217 10.8925 54.4768 11.4799 54.1806 12.6549L51.4655 12.7038C51.4984 11.4147 52.0661 10.3948 53.1686 9.64412C54.2875 8.89347 55.6533 8.51815 57.2659 8.51815C58.895 8.51815 60.2854 8.90979 61.4373 9.69308C62.6056 10.4764 63.1898 11.4881 63.1898 12.7283V21.7116H60.4993V19.7534C60.1209 20.2756 59.5449 20.7651 58.7716 21.222C58.0146 21.679 57.0931 21.9074 56.0071 21.9074ZM56.2292 19.582C57.3153 19.582 58.2944 19.2149 59.1665 18.4805C60.0551 17.7462 60.4993 16.8813 60.4993 15.8859H57.0191C55.9495 15.8859 55.1514 16.0899 54.6249 16.4979C54.1147 16.8895 53.8926 17.3872 53.9584 17.991C54.0078 18.5458 54.2546 18.9538 54.6989 19.2149C55.1432 19.4596 55.6533 19.582 56.2292 19.582Z" fill="#dde8fc" fill-opacity="0.75"/>
<path d="M65.3611 21.7116L65.3117 11.1617V8.29785C65.3117 6.7476 65.9535 5.58084 67.237 4.79755C68.5205 4.01427 70.2153 3.88372 72.3216 4.40591L72.2969 6.55994C70.9311 6.20094 69.8945 6.20094 69.1869 6.55994C68.4958 6.90263 68.1502 7.49009 68.1502 8.32233V8.73845H72.1982V11.1617H68.1502L68.1749 21.7116H65.3611Z" fill="#dde8fc" fill-opacity="0.75"/>
<path d="M79.6609 21.9074C77.785 21.9074 76.1971 21.2547 74.8972 19.9492C73.5972 18.6274 72.9472 17.0445 72.9472 15.2005C72.9472 13.3402 73.6054 11.7655 74.9218 10.4764C76.2382 9.17089 77.8179 8.51815 79.6609 8.51815C81.29 8.51815 82.7216 9.0485 83.9557 10.1092C85.2063 11.1536 85.9715 12.4672 86.2512 14.0501C86.4158 14.8171 86.424 15.5514 86.2759 16.2531H75.7611C75.9256 17.2159 76.3699 17.9828 77.0939 18.554C77.8179 19.1088 78.6736 19.3862 79.6609 19.3862C81.1748 19.3862 82.3843 18.8559 83.2893 17.7952H85.8357C85.8357 17.7952 85.5413 19.5102 83.2893 20.9773C82.1374 21.5974 80.928 21.9074 79.6609 21.9074ZM75.7611 14.0746H83.4867C83.3222 13.2097 82.8861 12.4835 82.1786 11.8961C81.4874 11.3086 80.64 11.0149 79.6362 11.0149C78.6325 11.0149 77.7768 11.3168 77.0692 11.9205C76.3617 12.508 75.9256 13.226 75.7611 14.0746Z" fill="#dde8fc" fill-opacity="0.75"/>
<path d="M106.888 21.9074C106.312 21.9074 105.753 21.8421 105.21 21.7116C104.683 21.581 104.173 21.3771 103.679 21.0996C103.186 20.8059 102.782 20.3898 102.47 19.8513C102.157 19.2965 102.001 18.6519 102.001 17.9176C101.984 16.5958 102.445 15.5922 103.383 14.9068C104.321 14.2051 105.662 13.8543 107.406 13.8543H111.38V13.071C111.38 12.353 111.084 11.8145 110.492 11.4555C109.899 11.0801 109.134 10.8925 108.196 10.8925C106.403 10.8925 105.358 11.4799 105.062 12.6549L102.346 12.7038C102.379 11.4147 102.947 10.3948 104.05 9.64412C105.168 8.89347 106.534 8.51815 108.147 8.51815C109.776 8.51815 111.166 8.90979 112.318 9.69308C113.487 10.4764 114.071 11.4881 114.071 12.7283V21.7116H111.38V19.7534C111.002 20.2756 110.426 20.7651 109.652 21.222C108.896 21.679 107.974 21.9074 106.888 21.9074ZM107.11 19.582C108.196 19.582 109.175 19.2149 110.047 18.4805C110.936 17.7462 111.38 16.8813 111.38 15.8859H107.9C106.83 15.8859 106.032 16.0899 105.506 16.4979C104.996 16.8895 104.774 17.3872 104.839 17.991C104.889 18.5458 105.136 18.9538 105.58 19.2149C106.024 19.4596 106.534 19.582 107.11 19.582Z" fill="#dde8fc" fill-opacity="0.75"/>
<path d="M116.132 21.7116V4.79755H118.97V21.7116H116.132Z" fill="#dde8fc" fill-opacity="0.75"/>
<path fill-rule="evenodd" clip-rule="evenodd" d="M87.9255 4.79755H95.4291C97.091 4.79755 98.4733 5.36054 99.5758 6.48651C100.678 7.59616 101.23 8.94243 101.23 10.5253C101.23 12.1245 100.678 13.4708 99.5758 14.5641C98.4897 15.6411 97.1075 16.1878 95.4291 16.2041L90.8628 16.2286V21.7116H87.9255V4.79755ZM95.2316 13.585L90.8628 13.6095V7.44114L95.2316 7.41666C96.2025 7.41666 96.9676 7.70223 97.5271 8.27338C98.103 8.84452 98.391 9.56253 98.391 10.4274C98.391 11.3086 98.103 12.0592 97.5271 12.6793C96.9512 13.2831 96.186 13.585 95.2316 13.585Z" fill="#dde8fc" fill-opacity="0.75"/>
<path d="M12.4659 0C11.6679 -7.32412e-08 10.9025 0.31435 10.3382 0.873896L1.47382 9.66328C1.13808 9.99619 0.970212 10.4325 0.970215 10.8688C0.970218 11.3052 1.13809 11.7415 1.47383 12.0744L7.28291 17.8342V7.6372C7.28291 6.87621 7.90021 6.2593 8.6677 6.2593C11.9102 6.2593 19.8029 6.2593 20.8795 6.2593L27.1922 8.87071e-05L12.4659 0Z" fill="#dde8fc" fill-opacity="0.75"/>
<path d="M7.28319 19.7407H19.4901C20.2576 19.7407 20.8798 19.1238 20.8798 18.3628V8.16571L26.6888 13.9256C27.0246 14.2585 27.1925 14.6948 27.1925 15.1312C27.1925 15.5675 27.0246 16.0038 26.6889 16.3367L17.8245 25.1261C17.2602 25.6857 16.4948 26 15.6967 26L0.97049 25.9999L7.28319 19.7407Z" fill="#dde8fc" fill-opacity="0.75"/>
</svg>
