<svg width="110" height="28" viewBox="0 0 110 28" fill="none" xmlns="http://www.w3.org/2000/svg">
<g clip-path="url(#clip0_3617_4304)">
<path d="M68.2871 8.5752H79.6734V11.5897L73.4809 20.0309H79.6734V23.5811H68.2871V20.5666L74.4796 12.1254H68.2871V8.5752Z" fill="#dde8fc" fill-opacity="0.75"/>
<path d="M106.707 18.0213C108.104 17.4848 109.57 16.0782 109.57 13.5994C109.57 10.5849 107.507 8.64185 104.443 8.64185H97.4521V23.5812H101.314V18.557H102.779L105.509 23.5812H109.97L106.707 18.0213ZM103.977 15.0734H101.314V12.0589H103.977C104.976 12.0589 105.642 12.6619 105.642 13.5328C105.642 14.4703 104.976 15.0734 103.977 15.0734Z" fill="#dde8fc" fill-opacity="0.75"/>
<path d="M88.0631 8.37378C83.5349 8.37378 80.3408 11.6561 80.3408 16.078C80.3408 20.4999 83.6018 23.7823 88.0631 23.7823C92.5243 23.7823 95.8537 20.4991 95.8537 16.078C95.8537 11.6569 92.5905 8.37378 88.0631 8.37378ZM88.0631 20.2986C85.7994 20.2986 84.2674 18.5568 84.2674 16.081C84.2674 13.5356 85.7994 11.8633 88.0631 11.8633C90.3268 11.8633 91.9249 13.6051 91.9249 16.081C91.9249 18.5568 90.3268 20.2986 88.0631 20.2986Z" fill="#dde8fc" fill-opacity="0.75"/>
<path d="M55.6357 8.5752H66.4226V12.0588H59.4976V14.269H66.2226V17.6861H59.4976V20.0975H66.4226V23.5811H55.6357V8.5752Z" fill="#dde8fc" fill-opacity="0.75"/>
<path d="M17.3487 6.49814C17.3487 2.94643 14.2856 0 10.5568 0C6.8281 0 3.76494 2.94791 3.76494 6.49814V8.57514H0.970215V23.5145L10.5568 28L20.1457 23.5115V8.63878H17.351L17.3487 6.49814ZM7.22745 6.49814C7.22745 4.82366 8.69247 3.48363 10.5568 3.48363C12.4212 3.48363 13.8862 4.82366 13.8862 6.49814V8.57514H7.22745V6.49814ZM16.2831 21.1023L10.5568 23.7824L4.83061 21.1023V12.1254H16.2831V21.1023Z" fill="#dde8fc" fill-opacity="0.75"/>
<path d="M53.838 13.5994C53.838 10.5849 51.7736 8.64185 48.7104 8.64185H41.7192V23.5812H45.5811V18.557H47.0461L49.7761 23.5812H54.2389L50.9756 18.0213C52.373 17.4848 53.838 16.0782 53.838 13.5994ZM48.2442 15.0734H45.5811V12.0589H48.2442C49.2429 12.0589 49.9092 12.6619 49.9092 13.5328C49.9092 14.4703 49.2429 15.0734 48.2442 15.0734Z" fill="#dde8fc" fill-opacity="0.75"/>
<path d="M27.9365 8.5752H39.9884V12.1254H35.8603V23.5811H31.9977V12.1254H27.9365V8.5752Z" fill="#dde8fc" fill-opacity="0.75"/>
</g>
<defs>
<clipPath id="clip0_3617_4304">
<rect width="109" height="28" fill="white" transform="translate(0.970215)"/>
</clipPath>
</defs>
</svg>
