<svg width="502" height="515" viewBox="0 0 502 515" fill="none" xmlns="http://www.w3.org/2000/svg">
<g filter="url(#filter0_f_3502_5726)">
<circle cx="251" cy="411.434" r="125" fill="url(#paint0_radial_3502_5726)" fill-opacity="0.8"/>
</g>
<g filter="url(#filter1_d_3502_5726)">
<circle cx="251" cy="410" r="44" fill="#041A23"/>
</g>
<mask id="mask0_3502_5726" style="mask-type:alpha" maskUnits="userSpaceOnUse" x="211" y="370" width="80" height="81">
<circle cx="251" cy="410.434" r="40" fill="#221F2E"/>
</mask>
<g mask="url(#mask0_3502_5726)">
<rect x="211" y="370.434" width="80" height="80" fill="#020618" fill-opacity="0.45"/>
</g>
<g filter="url(#filter2_i_3502_5726)">
<path d="M229.437 416.288C228.737 416.288 228.112 415.797 227.968 415.085C226.72 408.898 227.968 402.605 231.482 397.363C231.943 396.675 232.875 396.491 233.563 396.952C234.251 397.413 234.435 398.346 233.974 399.033C230.909 403.605 229.82 409.095 230.908 414.491C231.072 415.303 230.546 416.095 229.734 416.259C229.634 416.278 229.535 416.288 229.437 416.288Z" fill="#1FD9F1" fill-opacity="0.65"/>
</g>
<g filter="url(#filter3_i_3502_5726)">
<path d="M235.913 395.933C235.515 395.933 235.117 395.775 234.822 395.462C234.253 394.859 234.281 393.91 234.883 393.342C238.071 390.333 242.037 388.284 246.352 387.413C251.614 386.353 256.916 387.082 261.686 389.523C262.423 389.9 262.715 390.804 262.338 391.542C261.961 392.28 261.057 392.573 260.319 392.193C256.16 390.064 251.536 389.428 246.945 390.354C243.18 391.113 239.721 392.901 236.942 395.524C236.652 395.797 236.282 395.933 235.913 395.933Z" fill="#1FD9F1" fill-opacity="0.65"/>
</g>
<g filter="url(#filter4_i_3502_5726)">
<path d="M272.549 407.594C271.849 407.594 271.224 407.103 271.08 406.391C270.153 401.793 267.654 397.621 264.044 394.643C263.405 394.116 263.315 393.17 263.841 392.531C264.368 391.892 265.313 391.801 265.953 392.329C270.092 395.744 272.957 400.527 274.02 405.798C274.184 406.61 273.658 407.402 272.846 407.566C272.747 407.584 272.647 407.594 272.549 407.594Z" fill="#1FD9F1" fill-opacity="0.65"/>
</g>
<g filter="url(#filter5_i_3502_5726)">
<path d="M245.317 433.189C244.965 433.189 244.612 433.066 244.327 432.816C243.705 432.269 243.643 431.322 244.19 430.699C249.03 425.19 250.976 417.914 249.529 410.737C249.365 409.925 249.891 409.133 250.703 408.969C251.514 408.808 252.306 409.331 252.47 410.143C254.104 418.247 251.908 426.46 246.444 432.679C246.148 433.016 245.733 433.189 245.317 433.189Z" fill="#1FD9F1" fill-opacity="0.65"/>
</g>
<g filter="url(#filter6_i_3502_5726)">
<path d="M251.695 433.92C251.403 433.92 251.109 433.835 250.849 433.658C250.165 433.19 249.991 432.257 250.458 431.573C254.789 425.244 256.586 416.458 254.932 409.71C254.341 407.264 252.53 406.041 250.201 406.509C247.989 406.955 246.648 408.989 247.083 411.241C248.463 418.391 246.152 425.594 240.901 430.506C240.296 431.072 239.346 431.041 238.781 430.435C238.215 429.831 238.246 428.881 238.851 428.315C243.344 424.112 245.321 417.942 244.138 411.81C243.394 407.957 245.797 404.336 249.609 403.568C253.499 402.79 256.886 405.019 257.848 409.001C259.692 416.523 257.719 426.277 252.935 433.268C252.644 433.692 252.174 433.92 251.695 433.92Z" fill="#1FD9F1" fill-opacity="0.65"/>
</g>
<g filter="url(#filter7_i_3502_5726)">
<path d="M235.442 427.488C235.007 427.488 234.577 427.3 234.28 426.938C233.755 426.297 233.849 425.352 234.49 424.828C237.555 422.317 239.229 418.47 238.967 414.534C238.912 413.708 239.537 412.993 240.364 412.937C241.176 412.889 241.905 413.507 241.96 414.334C242.287 419.234 240.205 424.024 236.39 427.147C236.113 427.376 235.776 427.488 235.442 427.488Z" fill="#1FD9F1" fill-opacity="0.65"/>
</g>
<g filter="url(#filter8_i_3502_5726)">
<path d="M262.368 413.934C261.595 413.934 260.939 413.341 260.874 412.557C260.765 411.227 260.574 409.883 260.308 408.564C260.303 408.54 260.299 408.515 260.295 408.491C259.78 406.033 258.347 403.917 256.253 402.526C254.139 401.122 251.607 400.623 249.116 401.126C245.042 401.946 241.923 405.406 241.531 409.539C241.453 410.364 240.715 410.973 239.896 410.891C239.071 410.813 238.466 410.08 238.544 409.256C239.06 403.818 243.164 399.265 248.523 398.185C255.285 396.829 261.888 401.212 263.251 407.97C263.256 407.997 263.261 408.024 263.265 408.05C263.546 409.458 263.747 410.892 263.865 412.312C263.933 413.138 263.319 413.862 262.493 413.93C262.451 413.932 262.409 413.934 262.368 413.934Z" fill="#1FD9F1" fill-opacity="0.65"/>
</g>
<g filter="url(#filter9_i_3502_5726)">
<path d="M258.883 432.468C258.662 432.468 258.439 432.419 258.227 432.317C257.482 431.954 257.173 431.056 257.536 430.311C259.527 426.225 260.67 421.863 260.934 417.347C260.982 416.519 261.684 415.88 262.519 415.937C263.346 415.985 263.977 416.695 263.929 417.521C263.642 422.435 262.399 427.18 260.233 431.625C259.973 432.159 259.438 432.468 258.883 432.468Z" fill="#1FD9F1" fill-opacity="0.65"/>
</g>
<g filter="url(#filter10_i_3502_5726)">
<path d="M232.068 423.144C231.642 423.144 231.219 422.964 230.922 422.614C230.386 421.982 230.465 421.036 231.097 420.5C232.944 418.935 233.814 416.508 233.388 414.137C233.374 414.091 233.362 414.045 233.353 413.998C231.536 404.989 236.76 396.09 245.503 393.3C246.291 393.046 247.136 393.483 247.388 394.273C247.639 395.062 247.204 395.906 246.415 396.158C239.179 398.468 234.837 405.8 236.264 413.257C236.279 413.305 236.291 413.354 236.301 413.403C237.005 416.89 235.753 420.487 233.036 422.79C232.755 423.027 232.41 423.144 232.068 423.144Z" fill="#1FD9F1" fill-opacity="0.65"/>
</g>
<g filter="url(#filter11_i_3502_5726)">
<path d="M266.605 427.43C266.477 427.43 266.347 427.414 266.218 427.379C265.417 427.166 264.942 426.344 265.155 425.543C266.729 419.638 266.918 413.589 265.715 407.561C265.708 407.533 265.701 407.504 265.695 407.476C264.288 400.5 258.114 395.44 251.012 395.44C251.008 395.44 251.004 395.44 251 395.44C250.172 395.44 249.5 394.769 249.5 393.941C249.5 393.113 250.17 392.441 250.999 392.44C251.003 392.44 251.008 392.44 251.013 392.44C259.508 392.44 266.895 398.468 268.618 406.793C268.626 406.823 268.633 406.854 268.639 406.884C269.952 413.397 269.755 419.935 268.054 426.318C267.875 426.988 267.268 427.43 266.605 427.43Z" fill="#1FD9F1" fill-opacity="0.65"/>
</g>
<defs>
<filter id="filter0_f_3502_5726" x="-349" y="-188.566" width="1200" height="1200" filterUnits="userSpaceOnUse" color-interpolation-filters="sRGB">
<feFlood flood-opacity="0" result="BackgroundImageFix"/>
<feBlend mode="normal" in="SourceGraphic" in2="BackgroundImageFix" result="shape"/>
<feGaussianBlur stdDeviation="237.5" result="effect1_foregroundBlur_3502_5726"/>
</filter>
<filter id="filter1_d_3502_5726" x="72" y="235" width="358" height="358" filterUnits="userSpaceOnUse" color-interpolation-filters="sRGB">
<feFlood flood-opacity="0" result="BackgroundImageFix"/>
<feColorMatrix in="SourceAlpha" type="matrix" values="0 0 0 0 0 0 0 0 0 0 0 0 0 0 0 0 0 0 127 0" result="hardAlpha"/>
<feMorphology radius="35" operator="dilate" in="SourceAlpha" result="effect1_dropShadow_3502_5726"/>
<feOffset dy="4"/>
<feGaussianBlur stdDeviation="50"/>
<feComposite in2="hardAlpha" operator="out"/>
<feColorMatrix type="matrix" values="0 0 0 0 0.0117647 0 0 0 0 0.788235 0 0 0 0 0.901961 0 0 0 0.15 0"/>
<feBlend mode="normal" in2="BackgroundImageFix" result="effect1_dropShadow_3502_5726"/>
<feBlend mode="normal" in="SourceGraphic" in2="effect1_dropShadow_3502_5726" result="shape"/>
</filter>
<filter id="filter2_i_3502_5726" x="227.497" y="396.698" width="6.73145" height="23.5898" filterUnits="userSpaceOnUse" color-interpolation-filters="sRGB">
<feFlood flood-opacity="0" result="BackgroundImageFix"/>
<feBlend mode="normal" in="SourceGraphic" in2="BackgroundImageFix" result="shape"/>
<feColorMatrix in="SourceAlpha" type="matrix" values="0 0 0 0 0 0 0 0 0 0 0 0 0 0 0 0 0 0 127 0" result="hardAlpha"/>
<feOffset dy="4"/>
<feGaussianBlur stdDeviation="2"/>
<feComposite in2="hardAlpha" operator="arithmetic" k2="-1" k3="1"/>
<feColorMatrix type="matrix" values="0 0 0 0 0 0 0 0 0 0 0 0 0 0 0 0 0 0 0.51 0"/>
<feBlend mode="normal" in2="shape" result="effect1_innerShadow_3502_5726"/>
</filter>
<filter id="filter3_i_3502_5726" x="234.413" y="386.94" width="28.0898" height="12.9932" filterUnits="userSpaceOnUse" color-interpolation-filters="sRGB">
<feFlood flood-opacity="0" result="BackgroundImageFix"/>
<feBlend mode="normal" in="SourceGraphic" in2="BackgroundImageFix" result="shape"/>
<feColorMatrix in="SourceAlpha" type="matrix" values="0 0 0 0 0 0 0 0 0 0 0 0 0 0 0 0 0 0 127 0" result="hardAlpha"/>
<feOffset dy="4"/>
<feGaussianBlur stdDeviation="2"/>
<feComposite in2="hardAlpha" operator="arithmetic" k2="-1" k3="1"/>
<feColorMatrix type="matrix" values="0 0 0 0 0 0 0 0 0 0 0 0 0 0 0 0 0 0 0.51 0"/>
<feBlend mode="normal" in2="shape" result="effect1_innerShadow_3502_5726"/>
</filter>
<filter id="filter4_i_3502_5726" x="263.499" y="391.986" width="10.5513" height="19.6084" filterUnits="userSpaceOnUse" color-interpolation-filters="sRGB">
<feFlood flood-opacity="0" result="BackgroundImageFix"/>
<feBlend mode="normal" in="SourceGraphic" in2="BackgroundImageFix" result="shape"/>
<feColorMatrix in="SourceAlpha" type="matrix" values="0 0 0 0 0 0 0 0 0 0 0 0 0 0 0 0 0 0 127 0" result="hardAlpha"/>
<feOffset dy="4"/>
<feGaussianBlur stdDeviation="2"/>
<feComposite in2="hardAlpha" operator="arithmetic" k2="-1" k3="1"/>
<feColorMatrix type="matrix" values="0 0 0 0 0 0 0 0 0 0 0 0 0 0 0 0 0 0 0.51 0"/>
<feBlend mode="normal" in2="shape" result="effect1_innerShadow_3502_5726"/>
</filter>
<filter id="filter5_i_3502_5726" x="243.817" y="408.939" width="9.18164" height="28.249" filterUnits="userSpaceOnUse" color-interpolation-filters="sRGB">
<feFlood flood-opacity="0" result="BackgroundImageFix"/>
<feBlend mode="normal" in="SourceGraphic" in2="BackgroundImageFix" result="shape"/>
<feColorMatrix in="SourceAlpha" type="matrix" values="0 0 0 0 0 0 0 0 0 0 0 0 0 0 0 0 0 0 127 0" result="hardAlpha"/>
<feOffset dy="4"/>
<feGaussianBlur stdDeviation="2"/>
<feComposite in2="hardAlpha" operator="arithmetic" k2="-1" k3="1"/>
<feColorMatrix type="matrix" values="0 0 0 0 0 0 0 0 0 0 0 0 0 0 0 0 0 0 0.51 0"/>
<feBlend mode="normal" in2="shape" result="effect1_innerShadow_3502_5726"/>
</filter>
<filter id="filter6_i_3502_5726" x="238.376" y="403.415" width="20.1548" height="34.5059" filterUnits="userSpaceOnUse" color-interpolation-filters="sRGB">
<feFlood flood-opacity="0" result="BackgroundImageFix"/>
<feBlend mode="normal" in="SourceGraphic" in2="BackgroundImageFix" result="shape"/>
<feColorMatrix in="SourceAlpha" type="matrix" values="0 0 0 0 0 0 0 0 0 0 0 0 0 0 0 0 0 0 127 0" result="hardAlpha"/>
<feOffset dy="4"/>
<feGaussianBlur stdDeviation="2"/>
<feComposite in2="hardAlpha" operator="arithmetic" k2="-1" k3="1"/>
<feColorMatrix type="matrix" values="0 0 0 0 0 0 0 0 0 0 0 0 0 0 0 0 0 0 0.51 0"/>
<feBlend mode="normal" in2="shape" result="effect1_innerShadow_3502_5726"/>
</filter>
<filter id="filter7_i_3502_5726" x="233.94" y="412.934" width="8.05322" height="18.5537" filterUnits="userSpaceOnUse" color-interpolation-filters="sRGB">
<feFlood flood-opacity="0" result="BackgroundImageFix"/>
<feBlend mode="normal" in="SourceGraphic" in2="BackgroundImageFix" result="shape"/>
<feColorMatrix in="SourceAlpha" type="matrix" values="0 0 0 0 0 0 0 0 0 0 0 0 0 0 0 0 0 0 127 0" result="hardAlpha"/>
<feOffset dy="4"/>
<feGaussianBlur stdDeviation="2"/>
<feComposite in2="hardAlpha" operator="arithmetic" k2="-1" k3="1"/>
<feColorMatrix type="matrix" values="0 0 0 0 0 0 0 0 0 0 0 0 0 0 0 0 0 0 0.51 0"/>
<feBlend mode="normal" in2="shape" result="effect1_innerShadow_3502_5726"/>
</filter>
<filter id="filter8_i_3502_5726" x="238.538" y="397.938" width="25.333" height="19.9951" filterUnits="userSpaceOnUse" color-interpolation-filters="sRGB">
<feFlood flood-opacity="0" result="BackgroundImageFix"/>
<feBlend mode="normal" in="SourceGraphic" in2="BackgroundImageFix" result="shape"/>
<feColorMatrix in="SourceAlpha" type="matrix" values="0 0 0 0 0 0 0 0 0 0 0 0 0 0 0 0 0 0 127 0" result="hardAlpha"/>
<feOffset dy="4"/>
<feGaussianBlur stdDeviation="2"/>
<feComposite in2="hardAlpha" operator="arithmetic" k2="-1" k3="1"/>
<feColorMatrix type="matrix" values="0 0 0 0 0 0 0 0 0 0 0 0 0 0 0 0 0 0 0.51 0"/>
<feBlend mode="normal" in2="shape" result="effect1_innerShadow_3502_5726"/>
</filter>
<filter id="filter9_i_3502_5726" x="257.384" y="415.933" width="6.54785" height="20.5347" filterUnits="userSpaceOnUse" color-interpolation-filters="sRGB">
<feFlood flood-opacity="0" result="BackgroundImageFix"/>
<feBlend mode="normal" in="SourceGraphic" in2="BackgroundImageFix" result="shape"/>
<feColorMatrix in="SourceAlpha" type="matrix" values="0 0 0 0 0 0 0 0 0 0 0 0 0 0 0 0 0 0 127 0" result="hardAlpha"/>
<feOffset dy="4"/>
<feGaussianBlur stdDeviation="2"/>
<feComposite in2="hardAlpha" operator="arithmetic" k2="-1" k3="1"/>
<feColorMatrix type="matrix" values="0 0 0 0 0 0 0 0 0 0 0 0 0 0 0 0 0 0 0.51 0"/>
<feBlend mode="normal" in2="shape" result="effect1_innerShadow_3502_5726"/>
</filter>
<filter id="filter10_i_3502_5726" x="230.566" y="393.228" width="16.8926" height="33.9165" filterUnits="userSpaceOnUse" color-interpolation-filters="sRGB">
<feFlood flood-opacity="0" result="BackgroundImageFix"/>
<feBlend mode="normal" in="SourceGraphic" in2="BackgroundImageFix" result="shape"/>
<feColorMatrix in="SourceAlpha" type="matrix" values="0 0 0 0 0 0 0 0 0 0 0 0 0 0 0 0 0 0 127 0" result="hardAlpha"/>
<feOffset dy="4"/>
<feGaussianBlur stdDeviation="2"/>
<feComposite in2="hardAlpha" operator="arithmetic" k2="-1" k3="1"/>
<feColorMatrix type="matrix" values="0 0 0 0 0 0 0 0 0 0 0 0 0 0 0 0 0 0 0.51 0"/>
<feBlend mode="normal" in2="shape" result="effect1_innerShadow_3502_5726"/>
</filter>
<filter id="filter11_i_3502_5726" x="249.5" y="392.44" width="19.9956" height="38.9902" filterUnits="userSpaceOnUse" color-interpolation-filters="sRGB">
<feFlood flood-opacity="0" result="BackgroundImageFix"/>
<feBlend mode="normal" in="SourceGraphic" in2="BackgroundImageFix" result="shape"/>
<feColorMatrix in="SourceAlpha" type="matrix" values="0 0 0 0 0 0 0 0 0 0 0 0 0 0 0 0 0 0 127 0" result="hardAlpha"/>
<feOffset dy="4"/>
<feGaussianBlur stdDeviation="2"/>
<feComposite in2="hardAlpha" operator="arithmetic" k2="-1" k3="1"/>
<feColorMatrix type="matrix" values="0 0 0 0 0 0 0 0 0 0 0 0 0 0 0 0 0 0 0.51 0"/>
<feBlend mode="normal" in2="shape" result="effect1_innerShadow_3502_5726"/>
</filter>
<radialGradient id="paint0_radial_3502_5726" cx="0" cy="0" r="1" gradientUnits="userSpaceOnUse" gradientTransform="translate(251 411.434) rotate(90) scale(125)">
<stop stop-color="#467BEB" stop-opacity="0.5"/>
<stop offset="0.9999" stop-color="#03C9E6" stop-opacity="0.5"/>
<stop offset="1" stop-color="#00D5BE" stop-opacity="0.5"/>
</radialGradient>
</defs>
</svg>
