<svg xmlns="http://www.w3.org/2000/svg" width="20" height="20" viewBox="0 0 20 20" fill="none">
  <g clip-path="url(#clip0_3698_4716)">
    <path d="M2.6987 12.5134C2.56858 11.9628 2.50204 11.3992 2.50037 10.8334C2.50408 9.51393 2.85495 8.21866 3.51773 7.07771C4.1805 5.93676 5.13185 4.9903 6.2762 4.33341C6.01826 3.81412 5.87314 3.24613 5.85037 2.66675C4.34405 3.43505 3.07878 4.60387 2.19371 6.04468C1.30864 7.48549 0.838054 9.14248 0.833702 10.8334C0.835395 11.6066 0.935647 12.3764 1.13204 13.1242C0.681808 13.5126 0.383368 14.0477 0.289457 14.6348C0.195545 15.222 0.312208 15.8234 0.618828 16.3329C0.925448 16.8423 1.40229 17.227 1.96508 17.4189C2.52787 17.6108 3.14038 17.5976 3.69437 17.3816C4.24836 17.1656 4.70816 16.7607 4.99253 16.2385C5.27689 15.7163 5.36751 15.1104 5.24836 14.5279C5.12921 13.9453 4.80798 13.4236 4.34142 13.055C3.87486 12.6864 3.29301 12.4946 2.6987 12.5134Z" fill="currentColor" />
    <path d="M12.4503 2.00587C12.3382 1.42154 12.023 0.89568 11.5606 0.521281C11.0981 0.146883 10.5182 -0.0519367 9.92332 -0.0400213C9.32844 -0.0281058 8.75694 0.193777 8.30987 0.586393C7.86279 0.979009 7.56895 1.51707 7.4803 2.10542C7.39165 2.69378 7.5139 3.29453 7.82543 3.80145C8.13696 4.30837 8.61771 4.6888 9.18266 4.87548C9.74762 5.06216 10.3604 5.04305 10.9126 4.82154C11.4648 4.60003 11.9209 4.19038 12.2003 3.66504C13.7327 4.1384 15.0737 5.08937 16.0272 6.37904C16.9807 7.66871 17.4969 9.22949 17.5003 10.8334V10.8525C18.0757 10.8905 18.6369 11.0483 19.1478 11.3159C19.157 11.155 19.1678 10.9942 19.1678 10.8334C19.1632 8.83092 18.5044 6.88482 17.2918 5.29129C16.0792 3.69776 14.3791 2.54408 12.4503 2.00587Z" fill="currentColor" data-accent="true" />
    <path d="M18.4673 12.8334C17.9858 12.5533 17.4243 12.4426 16.8725 12.5191C16.3206 12.5955 15.8104 12.8547 15.4231 13.2551C15.0359 13.6556 14.794 14.1743 14.7362 14.7284C14.6783 15.2824 14.8078 15.8399 15.104 16.3117C13.9314 17.4142 12.4334 18.1075 10.8341 18.2877C9.23472 18.468 7.62 18.1256 6.23146 17.3117C5.91337 17.7882 5.49925 18.193 5.01562 18.5001C6.75836 19.649 8.84391 20.1621 10.9208 19.9528C12.9977 19.7434 14.9389 18.8245 16.4173 17.3509C16.6726 17.444 16.9415 17.4944 17.2131 17.5001C17.764 17.5007 18.2996 17.3194 18.7368 16.9842C19.174 16.6491 19.4883 16.179 19.6308 15.6469C19.7733 15.1148 19.7361 14.5506 19.525 14.0418C19.3138 13.533 18.9405 13.1082 18.4631 12.8334H18.4673Z" fill="currentColor" />
  </g>
  <defs>
    <clipPath id="clip0_3698_4716">
      <rect width="20" height="20" fill="white"/>
    </clipPath>
  </defs>
</svg>